<?xml version="1.0" encoding="utf-8"?>
<!-- Generator: Adobe Illustrator 23.0.1, SVG Export Plug-In . SVG Version: 6.00 Build 0)  -->
<svg version="1.1" id="Layer_1" xmlns="http://www.w3.org/2000/svg" xmlns:xlink="http://www.w3.org/1999/xlink" x="0px" y="0px"
	 viewBox="0 0 641.3 750" style="enable-background:new 0 0 641.3 750;" xml:space="preserve">
<style type="text/css">
	.st0{fill:#A0242D;stroke:#1B1464;stroke-width:2;stroke-miterlimit:10;}
	.st1{fill:#C1272D;stroke:#1B1464;stroke-width:2;stroke-miterlimit:10;}
	.st2{fill:#FF0000;stroke:#1B1464;stroke-width:2;stroke-miterlimit:10;}
	.st3{fill:#999999;stroke:#1B1464;stroke-miterlimit:10;}
	.st4{fill:none;stroke:#1B1464;stroke-miterlimit:10;}
	.st5{fill:#808080;stroke:#1B1464;stroke-miterlimit:10;}
	.st6{fill:#DCEFF4;stroke:#1B1464;stroke-miterlimit:10;}
	.st7{fill:#F9C33D;stroke:#1B1464;stroke-miterlimit:10;}
	.st8{fill:#4D4D4D;stroke:#1B1464;stroke-miterlimit:10;}
	.st9{fill:#666666;stroke:#1B1464;stroke-miterlimit:10;}
	.st10{fill:#A36E28;stroke:#000000;stroke-miterlimit:10;}
	.st11{fill:#F9C33D;stroke:#000000;stroke-miterlimit:10;}
	.st12{fill:#CCCCCC;stroke:#1B1464;stroke-miterlimit:10;}
	.st13{fill:#B3B3B3;stroke:#1B1464;stroke-miterlimit:10;}
	.st14{fill:#E6E6E6;stroke:#1B1464;stroke-miterlimit:10;}
	.st15{fill:#B3B3B3;stroke:#000000;stroke-miterlimit:10;}
	.st16{fill:#CCCCCC;stroke:#000000;stroke-miterlimit:10;}
	.st17{fill:#E6E6E6;stroke:#000000;stroke-miterlimit:10;}
	.st18{fill:#999999;stroke:#000000;stroke-miterlimit:10;}
	.st19{fill:#FCE98B;stroke:#1B1464;stroke-miterlimit:10;}
	.st20{fill:#C1272D;stroke:#1B1464;stroke-miterlimit:10;}
	.st21{fill:#2E3192;stroke:#1B1464;stroke-miterlimit:10;}
	.st22{stroke:#1B1464;stroke-miterlimit:10;}
	.st23{fill:none;stroke:#000000;stroke-miterlimit:10;}
	.st24{fill:#FFFFFF;}
	.st25{stroke:#000000;stroke-miterlimit:10;}
	.st26{display:none;}
	.st27{display:inline;fill:#58BF08;stroke:#C1272D;stroke-miterlimit:10;}
	.st28{display:none;fill:#58BF08;stroke:#C1272D;stroke-miterlimit:10;}
	.st29{fill:#E6E6E6;}
	.st30{fill:#29ABE2;}
	.st31{display:inline;fill:#FF0000;stroke:#C1272D;stroke-miterlimit:10;}
	.st32{fill:#58BF08;stroke:#C1272D;stroke-miterlimit:10;}
	.st33{fill:#F2C69C;stroke:#42210B;stroke-miterlimit:10;}
	.st34{fill:#F2C69C;stroke:#000000;stroke-miterlimit:10;}
</style>
<image style="overflow:visible;enable-background:new    ;" width="275" height="333" xlink:href="B91C632B.jpg"  transform="matrix(-0.9127 0 0 0.9127 773.9599 -17.8946)">
</image>
<g id="Cape">
	<path class="st0" d="M319,611.6c0,0,40-39,88-15s78,34,131,19c0,0-78.4-20.7-92-42c-14-22,29-360,41-385
		C493,176.1,310,153.6,319,611.6z"/>
	<path class="st1" d="M441.5,590.1c48,24,42.5,40.5,95.5,25.5c0,0-78.4-20.7-92-42c-14-22,29-360,41-385
		C492,176.1,393.5,566.1,441.5,590.1z"/>
	<path class="st2" d="M144,637.6c0,0-24,25-32,25s-35,30.4,130,29c9.8-0.1,15.1-5.5,20.7-4.4c28.8,5.7,9.3,30.4,9.3,30.4
		s31.2,10,46-24.7c20.5-47.8,18.5-160.8,57.7-418.3c8.7-57.3,19.6-132.9,9.6-114.7C301.7,311.3,257,439.3,216.5,554.1
		C198.5,605.1,144,637.6,144,637.6z"/>
	<path class="st1" d="M126.4,651.9c0.1-0.4,0.2-0.8-0.1-0.7c-9.7,4-67.3-3-31.7,37c24,27,148,3,148,3s-129.4-12.7-137-19
		C95,663.4,122.5,663.1,126.4,651.9z"/>
	<path class="st1" d="M271,717.6c0,0,31.2,10,46-24.7c20.5-47.8,18.5-160.8,57.7-418.3c8.7-57.3,13.6-135.1,9.6-114.7
		C350,335.6,338.2,408.6,315,532.6C280,719.6,271,717.6,271,717.6z"/>
</g>
<g id="Shield_and_Left_Arm">
	<path class="st3" d="M500,250.6l10,19c0,0,3,2,0,7s7,18,17,19s16,2,16,2s-4,14,0,17s58.5-16.5,58.5-16.5s-20-17-36.5-24.5
		c-7.3-3.3,3-18.3-14-24c-7.5-2.5-2-14-2-14s-9-4-13-2s-9-15-14-16c-3.9-0.8-15.8,13.6-20.5,22.5C500.2,242.6,500,250.6,500,250.6z"
		/>
	<path class="st3" d="M528.2,195.6c0,0,10,45-21.8,52.9c-4.1,1-1.7-5.2-1.7-5.2l9-45.6L528.2,195.6z"/>
	<path class="st3" d="M469,169.6c0,0,33.2,10.4,33.2,71.6c0,14.5,18.7-27,11.4-45.7C510.9,188.6,504.3,169.6,469,169.6z"/>
	<path class="st4" d="M559.5,257.1c3.3,4,6.7,26.8-2,33c-14,10-33,7-40,0c-18.6-18.6,3.8-18.6,16-25
		C554.5,254.1,545.5,240.1,559.5,257.1z"/>
	<path class="st5" d="M552.1,318c0.8-7.7,5.1-13.7-4.8-15c-7.6-1-7.7,6-8.5,13.7s1.3,11,6.2,11.5C550,328.6,551.3,325.7,552.1,318z"
		/>
	<g id="Shield">
		<path class="st6" d="M550,343.6c0,0-5,232.2,32.5,276.5c5.5,6.5,57-89,54.5-296.5C637,319.3,570,321.6,550,343.6z"/>
		<path class="st7" d="M639.5,312.1c0,0-104-16-121,20c-27.3,57.9,26,306,55,305s56-148,57-175s-30,164-52,147s-37-239-24-265
			s84-22,83-21S643.5,321.1,639.5,312.1z"/>
	</g>
	<path class="st8" d="M568.8,331.4c0.3,3.7,2.1,7.2-5,7.3c-1.4,0-4.5-2.8-4.8-6.5c-0.3-3.7,0.3-5.4,4-5.7S568.4,327.7,568.8,331.4z"
		/>
	<path class="st9" d="M567.4,322.7c0.3,3.2,3.1,6.5-4.4,6.4c-6,0-5.7-2.3-6-5.5c-0.3-3.2,1.5-4.6,5.3-5
		C566.1,318.3,567.1,319.5,567.4,322.7z"/>
	<path class="st8" d="M578.8,328.3c0.7,5.1,0.2,10.3-3,10.2c-5.3-0.1-6.2-3.7-6.9-8.9c-0.7-5.1,1.5-7.5,4.9-8
		C577.1,321.1,578.1,323.1,578.8,328.3z"/>
	<path class="st8" d="M589.3,328.5c-0.3,3.7-1.8,7.3,4.6,7.2c1.3,0,4-2.9,4.3-6.6s-0.4-5.4-3.7-5.6
		C591.2,323.3,589.5,324.8,589.3,328.5z"/>
	<path class="st9" d="M578.9,318.5c0,4.9,1.6,9.6-5.1,9.1c-4.3-0.3-6.8-4.3-6.8-9.1s2.3-6.9,7.1-6.9S578.9,313.6,578.9,318.5z"/>
	<path class="st8" d="M578.9,327.5c-0.4,5.2,0.4,10.3,3.6,10c5.3-0.4,6-4.1,6.4-9.3s-1.9-7.4-5.3-7.7
		C580.2,320.3,579.3,322.4,578.9,327.5z"/>
	<path class="st9" d="M591.3,318.3c-0.5,3.8-1.9,6.9,3.2,7.7c5.1,0.7,5.1-2.6,5.7-6.4s-0.8-5.5-4.1-6
		C592.7,313.2,591.8,314.6,591.3,318.3z"/>
	<path class="st9" d="M590.9,317.9c0,5.2-1.4,10.2-5.2,9.7c-6.2-0.8-6.8-4.5-6.8-9.7s3-7.3,7-7.3
		C590.1,310.6,590.9,312.7,590.9,317.9z"/>
	<path class="st5" d="M565.4,306.7c0,7.7,6.1,14.5-4.9,14.5c-6,0-5.5-6.7-5.5-14.5s1.9-10.8,5.7-10.8S565.4,298.9,565.4,306.7z"/>
	<path class="st5" d="M579,302.7c0,9.4,1.5,15.4-6.3,14.9c-6.2-0.5-7.2-5.5-7.2-14.9c0-9.4,1.1-13.1,6.1-13.1S579,293.4,579,302.7z"
		/>
	<path class="st5" d="M592.6,303.8c0,9.4,1,15.4-6.3,14.9c-6.8-0.5-7.3-5.5-7.3-14.9c0-9.4,1.1-13.1,6.1-13.1
		S592.6,294.4,592.6,303.8z"/>
	<path class="st5" d="M593,306.2c0,7.4-0.1,11.9,4.5,12.4c3.7,0.4,5.5-5,5.5-12.4s-1.8-10.4-5.5-10.4S593,298.8,593,306.2z"/>
	<path class="st10" d="M548,253.1c-4.1,5-15.8,17.8-29.5,17c0,0,39-19,25-31c0,0-3-1-6,0c-2.9,1,17.9-19.9,12.5,9.6
		C549.7,250.4,549,251.9,548,253.1z"/>
	<path class="st11" d="M518.5,270.1c0,0,30.7-16.2,26.6-32.4c-0.6-2.6-7.6,1.4-7.6,1.4l-2-5c0,0,9-3,14,0S537.5,269.1,518.5,270.1z"
		/>
</g>
<g id="Legs">
	<path class="st3" d="M460,487.6c0,0-14,39.6-7,60c9,26,21,39,22,47s-2,27-5,26s34-6,36-8s-8-23.8-8-32c0-3-3-89,13-131
		c7-18.3-3-78-6-78s-73-1-73-1S450,481.6,460,487.6z"/>
	<path class="st12" d="M452,389.6c0,0,0,40-7,66s-3.5,57.5-3.5,57.5l1.5,24.5c0,0,8,12.5-16,55c-13,23,0,36,0,36s6.5,15.5,5,20
		c-2.7,8.1-8.3-10.6-23.5-9.5s-13-14-13-14S391,506.6,388,504.6s-25-108-17-128S453,368.6,452,389.6z"/>
	<path class="st13" d="M477.5,488.1l-7-7c0,0,32-35,35-33s10,15,9,26S477.5,488.1,477.5,488.1z"/>
	<path class="st7" d="M475.9,488.1c0,0-4.9-6.4-6.9-6.4s31-38,37-36s10,31,10,32c0,2-3.2-2-3.2-2s-1.3-22.5-7.8-26
		c-2.8-1.5-32,31-32,31l3.7,5.1L475.9,488.1z"/>
	<path class="st13" d="M390.5,494.1l-6-5c0,0,18-34,25-33s33,27,32,34S390.5,494.1,390.5,494.1z"/>
	<path class="st7" d="M389.2,495.1c0,0-5.7-2-6.7-5s21-38,28-37s33,28,35,39c0,0-9.1,4-9.1,1.7c0-1.4,2.7-3.1,2-5
		c-3.7-11.3-22.5-30.2-27-29.7c-8.9,1-25,30-25,30l3.3,2.9L389.2,495.1z"/>
	<path class="st13" d="M390.5,512.1c0,0-8,2-6.5,6s20.5,33,24.5,33s41.3-26.9,33-38C438.5,509.1,390.5,512.1,390.5,512.1z"/>
	<path class="st7" d="M437.5,512.1c0,0,10.5-1.5,8,6c-3.1,9.3-26.5,34.4-35,35c-7.5,0.5-29-32-29-37s7-5,7-5s2,3,0,3s-3,3-3,3
		s13.5,25.5,25,32c3.1,1.8,24-21,24-21S447.5,517.1,437.5,512.1z"/>
	<ellipse class="st12" cx="413" cy="504.6" rx="25" ry="31"/>
	<path class="st13" d="M476.5,499.1c0,0-8,4-6,8s15.8,28.5,32,35c5,2,9-39,9-39L476.5,499.1z"/>
	<path class="st7" d="M475,497.6c0,0-8,7-8,9s20.8,31.4,34,38c8,4,14-35,10-38c-0.8-0.6-3,5-3,5s1.2,26.6-6,29
		c-4.5,1.5-30.5-29.5-30-34c0.1-0.7,5-6,5-6L475,497.6z"/>
	<path class="st12" d="M515,492.6c0,14.4-11.2,32-20,32c-14,0-20-16.6-20-31s18.2-28,27-28S515,478.3,515,492.6z"/>
</g>
<g id="Chest">
	<polygon class="st13" points="492,296.6 458,302.6 458,342.6 	"/>
	<g>
		<polygon class="st14" points="390,298.6 458,342.6 458,302.6 		"/>
		<polygon class="st13" points="498,268.6 496,292.6 490,297.6 462,305.6 462,280.6 		"/>
		<polygon class="st14" points="385,286.6 392,299.6 462,305.6 462,280.6 		"/>
		<polygon class="st14" points="380,278.6 386,289.6 467,282.6 463,255.6 		"/>
		<polygon class="st13" points="501,253.6 499,267.6 467,282.6 463,255.6 		"/>
		<polygon class="st14" points="459,232.6 465,256.6 379,279.6 372,265.6 		"/>
		<polygon class="st13" points="502,229.6 501,253.6 465,256.6 459,232.6 		"/>
		<path class="st12" d="M401,168.6c0,0-29-3-36-1c-10,2.9,11,102,11,102l86-35l41-2c0-0.8-8.3-69.2-47-63c-5,0.8-7,22-7,22
			S415,169.6,401,168.6z"/>
		<path class="st14" d="M382,319.6c0,0-15.5,30.5-13,44c3.8,20.5,38,61,38,61s39-52,51-52s36,42,36,42s26-43,24-54s-24-48-24-48
			l-46,14.8L382,319.6z"/>
		<path class="st7" d="M390.5,298.1c0,0,4.1,8.9-9,22c-1,1,36,21,63,26c5,0.9,43.8-0.6,49-29c2-11-4-18-4-18
			c-0.1,0.3-14.5,22.3-31,23C433.5,323.1,407.5,311.1,390.5,298.1z"/>
		<path class="st7" d="M473,322.6c0,0,3-8-15-3h-8c0,0-7-3-7,5s0,19,0,19s2,5,9,5s13,0,13,0s9-2,9-11S473,322.6,473,322.6z
			 M462.5,343.6c0,0-3.7,0-8,0c-4.3,0-5.5-3.1-5.5-3.1s0-6.8,0-11.8s4.3-3.1,4.3-3.1h4.9c11-3.1,9.2,1.9,9.2,1.9s0.6,3.7,0.6,9.3
			S462.5,343.6,462.5,343.6z"/>
		<path class="st7" d="M368,360.6c0,0,30,59,40,61c0,0,36-50,51-50c7,0,31.8,34,32.5,37.5c1.8,9,21.6-37.2,25.7-46.7
			c0.2-0.5,0.9-1.3,0.9-0.8l0.9,14.1c0,0-18.5,39.3-26,45c-4,3-23.5-39.5-32-40c-15-0.9-47,44-51,51s-39-46-38-49s-3,36-3,36
			S354,378.6,368,360.6z"/>
		<path class="st13" d="M462,234.6l41-2c0,0-3-70-47-63c-5,0.8-7,22-7,22L462,234.6z"/>
	</g>
</g>
<path class="st1" d="M460,161.6c0,0,22-0.3,11,29c-6,16,2-16-9-19S460,161.6,460,161.6z"/>
<g id="Left_Shoe">
	<path class="st13" d="M535,653.6c0,0-3-1-7,3s30.5,24.5,30.5,24.5S561.5,666.1,535,653.6z"/>
	<path class="st12" d="M465,640.6c0,0-2.8,12.4,11,17c4.5,1.5,10,0,10,0s2,3.9,7,7c10.5,6.5,34.5,24.5,65,17c0.7-0.2,0-3,0-3
		S467,627.6,465,640.6z"/>
	<path class="st13" d="M497,614.6v1.3c0,0,11,12.7,14,25.7c0.2,1,9.3-6,9.3-6S512,616.6,497,614.6z"/>
	<path class="st12" d="M471,619.6c0,0-8,17-5,22s6,11,17,12c11.4,1,13,5,13,5s6-14,15-17c1-0.3-9.6-25.9-15-26S471,619.6,471,619.6z
		"/>
	<path class="st13" d="M520,635.6c0,0-9,3-9,6s17,16,17,16s4.5-5.5,7.5-3.5S524,635.6,520,635.6z"/>
	<path class="st12" d="M528,657.6c0,0-1.4-9.3-17-16c-7-3-15,17-15,17s14,13,20,13C517,671.6,528,657.6,528,657.6z"/>
	<path class="st12" d="M558,678.6c0,0-18-20-30-21c-6.1-0.5-12,14-12,14S536,681.6,558,678.6z"/>
	<path class="st13" d="M473.5,609.1c0,0-16,16,15.3,14.7c0.8,0,7.2-8.2,7.2-8.2s10.2,1.2,12.4,3.7c3.1,3.8,0-7.9,0-7.9
		s-11.9-5.3-13.4-4.8c-3,1-8.5,6.5-8.5,6.5S476,624.6,473.5,609.1z"/>
</g>
<g id="Right_Shoe">
	<path class="st13" d="M339.2,689.7c0,0,13.3,8.4,35.8-3.1c0.6-0.3,14.5,0.5,37-17c0.6-0.4,17.8,1.3,19.4-19.8
		C433,628.6,339.2,689.7,339.2,689.7z"/>
	<path class="st12" d="M362.5,663.1c0,0,6,1,6,3c0,1.8-23.4,18.3-28.9,22.2c-0.2,0.2-0.5-0.1-0.4-0.4
		C342.3,683.4,353.9,666.6,362.5,663.1z"/>
	<path class="st13" d="M338.5,689.1c0,0,18-19,30-23s8,16,8,16S344.5,692.1,338.5,689.1z"/>
	<path class="st12" d="M377.5,644.1c0,0,7.7-0.1,8.4,2s-17.4,20-17.4,20l-6-3C362.5,663.1,368.5,647.1,377.5,644.1z"/>
	<path class="st13" d="M368,665.6c0,0,8,4,8,16c0,2,27-12,31-17c0,0-4-19.9-21-18C377,647.6,368,665.6,368,665.6z"/>
	<path class="st12" d="M385.5,631.1c0,0,9-9,10-6s-9.5,21.5-9.5,21.5l-8.5-2.5C377.5,644.1,381.5,634.1,385.5,631.1z"/>
	<path class="st13" d="M395,625.6c0,0-10.5,11.5-9,21c0.3,1.6,12.5-2.5,21,18c0.4,1,2-3,4-2s16.1-2.7,19.6-12.4s-4.6-24.6-4.6-24.6
		l-12.6,12.9L395,625.6z"/>
	<path class="st13" d="M395.5,619.1c0,0-5.2,2.4-10,12c-2,4,8.7-6.6,8.7-6.6s11.3,12.6,11.3,19.6c0,6,25-16,23-23s-7-5-7-5
		s-1,16-13,21c0,0-6.4-12.5-8.8-15.6C398.6,620.2,395.5,619.1,395.5,619.1z"/>
</g>
<g id="Sword_and_Right_Arm">
	<path class="st12" d="M335,215.4c0-26.9,18.2-48.8,40.8-48.8s40.8,21.8,40.8,48.8c0,32.8-18.2,51.8-40.8,51.8S335,242.3,335,215.4z
		"/>
	<ellipse class="st14" cx="370.3" cy="215.6" rx="35.3" ry="42.5"/>
	<ellipse class="st13" cx="364.8" cy="216.6" rx="29.8" ry="34.5"/>
	<ellipse class="st12" cx="364" cy="220.1" rx="22.5" ry="31"/>
	<path class="st14" d="M381.5,217.1c2.4,26.8-30.7,39-50,34c-35-9-40-20.4-40-29.5s13.4-16.5,30-16.5c6.2,0,25.4-2.3,30-6
		c5-4,13-4,13-4S379.5,195.1,381.5,217.1z"/>
	<path class="st8" d="M348.5,202.3c-1.5-1.1-3.3-1.7-5.2-1.7c-5.5-0.1-19.5,1.3-18.8,3.6c0.9,2.8,37.2,2.3,33.8,33.1
		c-0.3,2.8-1,5.9-2,9.3c-3.9,12.6,16.8-19.1,4.6-32.9C356.1,208.1,351.3,204.3,348.5,202.3z"/>
	<path class="st13" d="M327.5,216.1c0-7.3-11-5-13-4s-8,0-5,8c2.2,5.9,3.6,6.1,8.6,4.7C323.2,223.4,327.5,218.1,327.5,216.1z"/>
	<path class="st13" d="M327.5,223.1c-2.1-5-6.4,1-8.6,1.5c-3.2,0.7-5.9,2-5.9,4.5s2.8,5.4,5.9,4.5
		C327.5,231.1,328.7,226.1,327.5,223.1z"/>
	<path class="st13" d="M321.9,193.9c2.3,8.4-6.8,4.2-9.2,5.1c-3.5,1.3-7,0.7-8.8-1.9c-1.9-2.6-1.5-8.3,2.1-8.7
		C316.4,187.2,320.8,189.9,321.9,193.9z"/>
	<g id="Sword">
		<path class="st11" d="M274,156.6l22-3l22,97c0,0-14.5,0.5-27,4C290.3,254.8,274,156.6,274,156.6z"/>
		<polygon class="st11" points="272,112.6 278,111.6 293,153.6 276,156.1 		"/>
		<circle class="st15" cx="271" cy="94.6" r="20"/>
		<circle class="st1" cx="271" cy="94.6" r="10"/>
		<polygon class="st16" points="294,262.6 297,275.6 314,292.6 324,269.6 321,256.6 		"/>
		<polygon class="st17" points="410,726.6 315.6,288.9 297,274.6 371,667.6 		"/>
		<path class="st16" d="M242.5,279.1l8,19c0,0,31-33,58-37s62,3,62,3l1-15c0,0-36-3-67,2.1C296.1,252.6,254.5,262.1,242.5,279.1z"/>
		<polygon class="st18" points="418,657.6 324,269.6 316,288.6 411,726.6 		"/>
	</g>
	<path class="st13" d="M324.5,203.2c2.7,6.5-8.3,8.5-10.6,8.3c-2.2-0.2-7.4,5.6-7.6-5.3c-0.2-10.1,1-6.7,6.3-7.3
		S323.8,201.4,324.5,203.2z"/>
	<path class="st12" d="M306.5,193.1c1.5,7.6-6,5.6-9,6.2c-8.9,1.6-4.9,3.6-7.5-5.8c-1.5-5.4,3.4-6.9,7.5-6.9
		S304.9,184.9,306.5,193.1z"/>
	<path class="st12" d="M310,206.7c1.5,8.5-4.8,6.8-8,7.5c-9.5,2-8.9,3.2-11.5-8.1c-1.5-6.5,8-7,10-7
		C304.9,199.1,308,195.9,310,206.7z"/>
	<path class="st12" d="M314,222.3c1,4.6-6,5.8-9.9,6.3c-11.8,1.7-6.1-2.6-7.5-7.4c-1.5-5.1-2-5,7.5-6.4
		C308.7,214.1,311.5,211.1,314,222.3z"/>
	<path class="st12" d="M316.5,232.1c0.6,4.2-4.6,7.6-8,8.2c-10,1.6-7-3.2-8-6.2c-1.6-4.4-3-4,8-6.4
		C313.1,226.8,315.4,223.8,316.5,232.1z"/>
	<path class="st14" d="M293.5,194.1c0,7.5-3.7,7-12,7s-15,2.5-15-7.5c0-7.5,6.7-7.5,15-7.5S293.5,186.6,293.5,194.1z"/>
	<path class="st14" d="M296.5,209.1c2,9-5.6,8-15,8s-13.5,1.6-15-9c-1-7,5.6-7,15-7S294.3,199.4,296.5,209.1z"/>
	<path class="st14" d="M299.5,223.1c3,11-5.7,9-14,9s-14,2.4-15-7.5c-1-9.5,6.7-7.5,15-7.5S296.8,213.1,299.5,223.1z"/>
	<path class="st14" d="M303.5,236.1c3.9,6.2-3.7,9-12,9s-13,1.9-15-6.5c-2-8.5,6.7-6.5,15-6.5S298.5,228.1,303.5,236.1z"/>
</g>
<g id="Helmet">
	<path class="st19" d="M56.5,713.6c0,2.7-0.3,5.5-0.9-0.3c-0.3,1-0.6,0.5-1-0.1s-0.8-1.4-1.3-0.9c-0.5,5.7-1-1.1-1.5,0
		c-0.5-1.6-1.1,4.6-1.7-1.8c-0.6-3.8-1.2-3.3-1.9-1.8c-0.6-1.5-1.3,7.8-2-0.8c-0.7-11.5-1.3-5.8-2-4.3c-0.3,1.6-0.7,2.1-1,2.1
		c-0.3-0.1-0.6-0.7-1-1.2c-0.2,0.1-0.4-1.9-0.6-2.2c-0.2,0.2-0.4-4.4-0.6-2.5c-0.2-2.3-0.4-7.9-0.6-1.8c-0.2-6.3-0.4-2.1-0.6,0.3
		c-0.4,1.8-0.8,2.4-1.1,1.9c-0.5,1-1-4.9-1.5-3.2c-0.5,0.7-0.9-0.3-1.3-2.1c-0.4-1.1-0.7-1.7-0.9-3.9c-0.3-1.3-0.5,1.5-0.6-2.4
		c-0.1-1-0.2-3.2-0.3-4.6s-0.2-2.1-0.3-0.2c-0.1,1.7-0.3,2.6-0.4-1.3c-0.2-0.6-0.3,0-0.5-0.7c-0.2,0.9-0.4,0.1-0.6-1.6
		c-0.2-2.4-0.4-2.2-0.6-0.4c-0.2-1.2-0.4-3.8-0.7-2.5c-0.2,1.9-0.5,0.3-0.7-0.7c-0.2,0.6-0.5-3.3-0.7-1.5c-0.3,1.1-0.5-0.4-0.8-0.5
		c-0.3-2.5-0.5-2.1-0.8-1.9c-0.3-3.2-0.5,1.8-0.8,0.1c-0.3-2.7-0.5-3.4-0.8-3.5c-0.3-1.6-0.5-2.1-0.8-0.4c-0.5,0.3-1.1,4.5-1.6,1.3
		c-0.5,0.3-1-4.5-1.5-1.4c-0.5-0.6-0.9,4-1.4-0.2c-0.4,3.8-0.8,5.2-1.1,2.6c-0.3-1.7-0.6-2.8-0.9-3.4c-0.3-4.9-0.4-2.6-0.6,0.4
		c-0.1,0.3-0.2-0.7-0.2-0.6c0,1.1,0,2.8,0,2.1c0,3.2,0,0.8,0-3c0,1.4,0,2.1,0,0.1c0-3.2,0-1.9,0-2.6c0,3.6,0-3.9,0-1.8
		c0-1.5,0-1.1,0-2.1c0,3.2,0,5,0,1.8c0-0.8,0,0.3,0-2.8c0,0.8,0-4.4,0.1-3.8c0-5.2,0.1-8.5,0.1-5.7c0-0.4,0.1,7.3,0.1,0
		c0,1.5,0.1-2.5,0.2-3.1c0.1,0.3,0.1,1.7,0.2-3c0.1-5.7,0.1-3,0.2-6.2c0.1-0.9,0.2-1.8,0.3-0.1c0.1-1.1,0.2-0.8,0.3-1.7
		c0.1-0.6,0.2-1.6,0.4-4.5c0.3-4.9,0.6,0.6,0.9-5.8c0.3-0.1,0.7-4.4,1.1-5.1c0.4-3.7,0.9-4.1,1.4-4.2c0.5,3.4,1-10.8,1.6-2.9
		c0.6,2.7,1.2-1.4,1.9-1.3c0.4,11.9,0.7,7.2,1-0.7c0.3-0.9,0.7-1.3,1-1.6c0.4,0.2,0.7-1.2,1.1-2.4c0.4-2.5,0.7-7.2,1.1-3.1
		c0.4-4.7,0.8-7.1,1.2-3.8c0.4-3,0.9-6.1,1.4-4.3c0.5-0.2,1,1.5,1.5-4.7c0.5-3.2,1.1-11.7,1.8-5.1c0.6-3.6,1.3-1.9,2-5.3
		c0.7,1,1.5,3,2.3-5.5c0.8-2.7,1.7-1,2.6-5.5c0.9-0.6,1.9-4,3-5.5c1.1,0.4,2.2-3,3.4-5.4c1.2-2.9,2.5,0.2,3.8-5.1
		c0.5-4.1,1.1,3.8,1.6-1.9c0.5-0.4,1.1-2.8,1.7-1.9c0.6,0.7,1.2,1.3,1.8-3.6c0.6,4,1.2-1.5,1.8,0c0.6-0.8,1.3,0.2,1.9-3.6
		c0.7-0.8,1.3-4.5,2,0.4c0.5,3,0.9,0.2,1.4,1.5c0.5,0.2,0.9-0.2,1.4-2.2c0.5,0.4,1-2,1.5-2.3c0.5,0.5,1-0.3,1.5-1.4
		c1-2.3,2.1-5.7,3.1-1.2c1.6,0.2,3.3,3.9,5-2.2c1.7-5.3,3.5,1.1,5.4-1.7c1.9-2.6,3.8-3.8,5.8-1.2c2-1.7,4.1-5.1,6.2-0.7
		c2.2-3.2,4.4,1.8,6.7-0.1c2.3-1.4,4.7,2.3,7.2,0.5c2.5,1.7,5-0.9,7.6,1.2c2.6-1.9,5.3-0.2,8.1,1.9c2.8-0.3,5.7,1.7,8.7,2.7
		c3,3.6,6,6.3,9.2,3.5c3.5,3.3,6.7,1.5,9.6,4.3c2.9,4.7,5.6-4,8.1,4.2c2.4-2.3,4.6,0.9,6.6,4.2c2-2.7,3.7,3.8,5.3,4.1
		c1.5,1.4,2.9,4.6,4,4c1.1,4.8,2.1,5.3,2.8,3.9c0.8,0.1,1.3-2.2,1.7,3.8c0.4,3.7,0.6,1.9,0.7,3.7c0.1,1.6,0,2.9-0.2,3.6
		c-0.2,2-0.6,2.6-1.1,3.5c-0.5,1.2-1.1,2.3-1.9,3.4c-7,10.7-24.4,19.5-40,25.7c-1.7,0.7-3.4,1.3-5.1,2c-1.7-0.7-3.3,0.1-4.9,1.8
		c-1.6,0.2-3.1-0.9-4.6,1.5c-1.4-0.3-2.8-1.7-4.1,1.3c-1.3-2.4-2.5-2.4-3.6,1.1c-1.1-4.9-2.1-3.8-3,0.9c-0.9,2.3-1.6,2.6-2.2,0.6
		c-0.6-0.5-1.1-3-1.4,0.4c-0.3,4.6-0.5-2-0.5,0.1s-0.2-2-0.6-0.7c-0.2,3.1-0.4-3.8-0.7,0.7c-0.3,2.4-0.6-2.2-1-2.6
		c-0.4,4.5-0.8-0.5-1.2,0.9c-0.4-2-0.9,1.5-1.4-3.5c-0.5,8.8-1.1-0.5-1.6-3.7c-0.6-5.2-1.2-7.3-1.8,0.9c-0.6,4.5-1.3,7.4-2-0.5
		c-0.7-6.2-1.4-2.3-2.1-2.2c-0.7,2.3-1.5-1.5-2.2-2.5c-0.8,3.6-1.5-4.2-2.3,0.5c-0.8,0.7-1.6,3.7-2.4-0.3c-0.8,2-1.6,0.1-2.4-0.6
		c-0.5,1-1.1-2.7-1.6,1.1c-0.6-0.2-1.1-0.8-1.7-2.3c-0.6-3.1-1.1-2.2-1.7,2c-0.8,1.9-1.6,0.4-2.5,2.7c-0.8,4.8-1.6-5.7-2.4,0
		c-0.4-1.3-0.8,1.9-1.2,0.8c-0.4,4.5-0.8-5.6-1.2,0.9c-0.4-5.2-0.8,5.6-1.2,2.6c-0.4,0.2-0.8,2.8-1.1,0.8c-0.2-3.7-0.3-0.8-0.5-1.6
		c-0.2-2-0.3,1.1-0.5,3.7c-0.2-0.3-0.3,7.7-0.5,3.1c-0.2,0.7-0.3,0.5-0.5-1.8c-0.2-1.8-0.3-3.6-0.5-1.6c-0.2-0.6-0.3,0.6-0.4,2.7
		c-0.1,3.1-0.3,4.7-0.4,3.5c-0.1-3-0.3-0.5-0.4-0.8c-0.1,0.1-0.2,0.9-0.3,3.8c-0.1,6.4-0.2,0.1-0.3,2c-0.1,1.7-0.2,3.4-0.3-3.8
		c-0.1-8.1-0.2-2.2-0.2-2.8c-0.1-1.3-0.2,1.7-0.2,0c-0.1,2.5-0.2,1.5-0.2,5c-0.2,10.6-0.4,3.4-0.6,5.3c-0.2-3.6-0.4,6-0.6-1
		c-0.1-7.5-0.2-1-0.4,1.4c-0.1,4.8-0.2,2.5-0.3,4.5c-0.1,0.8-0.2,1.9-0.3-1.4c0,1.6-0.1,4-0.1,4.4c0,2.3-0.1,2.4-0.1,2.7
		c0,0.5-0.1,0.7-0.1-0.3c-0.1,1.3-0.1,3.1-0.1,2.9c-0.1,1.7-0.1,1.1-0.1-2.6c-0.1-2.1-0.1,1.2-0.1-1.5c0-0.7-0.1,0.1-0.1-0.9
		c-0.1,3-0.3-1.1-0.4,0.5c-0.1,0.7-0.1,0.3-0.2,1.7c-0.1-1.6-0.1,0.8-0.2,2.8c-0.1,3.7-0.1,2-0.2,1.5c-0.1,0.7-0.1,1.5-0.2,0
		c-0.1-0.6-0.1,0.3-0.2-0.2c-0.1-0.6-0.1-2.5-0.1,3.9c-0.1-0.3-0.1-0.1-0.1,2.2c0,1.1-0.1-1-0.1,2.1c-0.1,0.8-0.2-2.2-0.2,0.9
		c0-0.9-0.1,7.5-0.1,3.2c0-0.3-0.1,3.9-0.1,0.3c-0.1-2.2-0.1-0.2-0.2,1.8c-0.1,3.7-0.1,14.4-0.2,2.3c-0.1-2.6-0.1,1.9-0.2,3
		c-0.1,3.2-0.1,4.5-0.2,5.7c-0.1-2.2-0.1-4.9-0.2-0.4c-0.1-3-0.1-0.7-0.2-0.1c-0.1-1.4-0.1-0.8-0.2,5.4c0,4.8-0.1,1.2-0.1,0.4
		c0,1.5-0.1-0.5-0.1-2c0-0.9-0.1-7.2-0.1,6.7c-0.1,4.5-0.1-4.4-0.2,4.7c-0.1,0.4-0.1,1.8-0.2,0.3c-0.1,1.9-0.1-10-0.2-0.7
		c-0.1,1.5-0.2,3.2-0.2,5.5c-0.1,0.6-0.2,1.9-0.3,3.7c-0.1,0.2-0.2,1.3-0.3,0.8c-0.1,2.1-0.2,2.9-0.3,3.4c-0.1,0.5-0.2,0.5-0.3,0.9
		c-0.2,0.6-0.5-1.1-0.8,4c-0.3,4.5-0.6-6-0.9,3.6c-0.3,0.8-0.7,2.4-1.1,3.2C57.4,714.3,57,699.3,56.5,713.6z"/>
	<path class="st20" d="M148,610.6c0-2,0-3.5-0.1-2c0-0.6-0.1-0.7-0.1,1.6c-0.1,1.9-0.1,1-0.2,1.7c-0.1,1.4-0.2-1.4-0.3-2.8
		c-0.1-0.7-0.2-4.3-0.4-1.7c-0.1-0.8-0.3,6.7-0.4-0.1c-0.1,0.1-0.3-3.4-0.5-3.9c-0.2-0.9-0.4-2.3-0.5,1.4c-0.2-5.7-0.4,2.2-0.6-1.6
		c-0.2-2.7-0.4,0.6-0.6-1.4c-0.2-4.4-0.4,0.8-0.6-2.6c-0.2-1.2-0.4,3.8-0.6-0.9c-0.2-1.9-0.4,3-0.6-1.6c-0.2-3.7-0.4-1.3-0.6-2.3
		c-0.2-4.5-0.4-2-0.6-3.4c-0.2-2-0.4-5.9-0.6-1c-0.2-1.6-0.4-2.3-0.5-1.5c-0.2-1-0.3-0.3-0.5-3.3c-0.2,4.5-0.3-0.3-0.4-1.6
		c-0.1-2.6-0.3-3.4-0.4-3.4c-0.1,1.2-0.1-2.4-0.2-1.7c-0.1,3.1-0.1-2.4-0.1-2c-0.1,0.7-0.2-1.9-0.2-1.6c0-1-0.1-1.6-0.1-2.4
		c0-0.2-0.1-1.3-0.1-1.4c0-2.2,0-3.7,0-4.7c0-1.8,0-1,0,3.1c0-3.2,0-2.8,0-5.6c0,3.2,0.1-1.1,0.1,0.1c0.1,6.5,0.1-2.2,0.3-1.5
		c0.1-5.1,0.2-11.1,0.4-4.1c0.1,5.7,0.3,0,0.5-3.3c0.2-2.6,0.4,4.7,0.7-2.3c0.3,6.3,0.5-6.6,0.8-1.6c0.3,5.2,0.6-2.1,1-3.9
		c0.2,2.3,0.4,10.7,0.6-1.4c0.2-1.4,0.4,2.4,0.6-1.4c0.2,1.2,0.4-1.1,0.6-1.6c0.2,0,0.4-1.6,0.7-1.1c0.3-3.8,0.6-2.8,0.9-2.5
		c0.3-3.6,0.6-2.6,1-0.9c0.3,3.2,0.7-2.3,1.1-0.8c0.4,1,0.8,3.7,1.1-2.5c0.4-2.3,0.8-3.1,1.2-2.8c0.4,0.1,0.9,4.3,1.3-0.3
		c0.4-1.8,0.9-3.9,1.4-1.6c0.5-0.5,1-3.4,1.5-1.5c0.5-2.9,1-0.3,1.6-1.7c0.5-1.8,1.1,2.3,1.7-1.2c0.6-1.3,1.1-3,1.8-1.6
		c0.6,3.8,1.2-0.2,1.9-1.2c0.6,6.5,1.3,1,1.9-1.7c0.7,0.9,1.4,1.5,2-0.9c0.7-1.4,1.4-3.3,2.1-1c0.7-4.7,1.5,1.2,2.3-1.5
		c1.2,2.2,2.4,2.4,3.6-2.3c1.2-3.6,2.3-4,3.4-2.5c1.1-1.6,2.1-2.8,3.2-1.7c1-1.7,2,1.3,3-0.1c1.3,0.2,2.5,0.3,3.7-2.1
		c1.2-1.7,2.3,0.6,3.4-2.4c1.1-0.5,2.1-0.6,3.1,0.1c2.9-3.5,5.4-0.9,7.6-2.6c2.1,3.1,3.9,1.6,5.3-1.1c1.4-1.9,2.6,1,3.4,0.1
		c0.9,2.6,1.5-2.5,1.9,0.9c0.4,0.4,0.7,0.3,0.8,1.5c0.1,2.6,0.1,0.2,0,1.7c-0.1-2.4-0.3,0.9-0.5,1.6c-0.2-1.6-0.4,3.3-0.6,1.2
		c-0.1,3.2-0.3-2.5-0.3,0.5c0-4.2,0.2-4.4,0.5-0.1c0.3-2.6,0.7-2.9,1.3-0.3c0.6-2.6,1.3-2.8,2.1-0.4c0.8,3.5,1.8-2,2.8-0.3
		c0.5-1.3,1.1-1.6,1.6-1.5c0.6,1.4,1.1-0.2,1.8,1.5c0.6-1.5,1.2-3.3,1.9,0.8c0.6-0.3,1.3,2.5,2-0.4c0.7-2.1,1.4,0.7,2.1,1.2
		c0.7,3.6,1.5,1,2.2-0.2c0.8-1.6,1.5-1.2,2.3-0.4c0.8,0.8,1.6,2,2.4,2.1c0.8,2.2,1.6,2.4,2.5,2.3c0.8,0.1,1.7-3.8,2.5,0.2
		c0.9-1.3,1.7,2,2.6,3.1c0.9-3.2,1.7,2.7,2.6,0.5c0.6,1.4,1.2,1,1.8,0.5c0.6-0.1,1.2-0.5,1.8,1c0.6,0.6,1.2,1.5,1.8,3.2
		c0.6-0.1,1.2,0,1.8,0.3c0.6,0.4,1.2,1,1.8,2c0.6,0.6,1.2,1.2,1.8,3.7c0.6-0.6,1.2,0.2,1.8,1.2c0.6,4.2,1.2,2.1,1.8,2.8
		c0.6,6.6,1.2,3.3,1.8,3.4c0.3,2.1,0.5,1.7,0.8,0.4c0.3-5.2,0.5-0.5,0.8,2.1c0.3,3.7,0.5,3.1,0.8,2.4c0.3-0.7,0.5,1,0.8,0.1
		c0.3,2.8,0.5,3.5,0.7,3.5c0.3,0,0.5-0.8,0.7-0.8c0.5,5.4,1,8.8,1.5,3.7c0.5,5.1,1,6.1,1.4,3.1c0.5,6.3,1-4.2,1.4,2.2
		c0.6-1.6,1.2,0.3,1.7,3.5c0.5,1.9,1.1,2.9,1.6,2.8c0.5,2.9,1-1.8,1.5,3.3c0.5,2.4,0.9,2.1,1.3,4.8c0.6-1.5,1.1,7.4,1.6,5.9
		c0.5,4.9,1,1.6,1.4,3.8c0.4,0.5,0.8-0.1,1.2,0.7c0.4,6.5,0.7,5.2,1,2.4c0.3,2,0.6-2.9,0.9,2.1c0.3,5.8,0.5-4.4,0.7,2.7
		c0.2,5.1,0.4,6.7,0.6,3.9c0.2,5.1,0.3,3.5,0.4,2.5c0.1,2.9,0.2,0.2,0.3-1.9c0.1-0.9,0.2,3.3,0.2,2.2c0,0.1,0-0.2,0,0
		c0,2.3-0.1,1-0.2,1.7c-0.1-0.3-0.2-1.1-0.3-1.2c-0.1,0.4-0.3,2.5-0.4,1.7c-0.1,0.8-0.3,0.8-0.5-2.3c-0.2,0.1-0.3,3-0.5-1.3
		c-0.2,1.7-0.3-0.4-0.5,0.2c-0.2,2.3-0.3-4.7-0.5-1.5c-0.1,4.1-0.3,1.9-0.4,0.5c-0.1,3.1-0.2,1.4-0.3-1.3c-0.1-0.5-0.1-1.7-0.1,0.8
		c0,3.8,0,4.5-0.1,3.5c-0.1,0.2-0.2,1.2-0.4-1.9c-0.1-0.3-0.3,2-0.5,0.9c-0.2-1.8-0.3,1-0.5,3.3c-0.2-5.7-0.3,4-0.4,2.8
		c-0.1,0.9-0.2,1.9-0.2,3.2c0,4.6,0,2.9,0,2.6c0,2.2,0,3.3,0.1,3.6c0-0.2,0.1-0.1,0.1-0.9c0.1,1,0.1,1.2,0.2,0.9s0.2-0.4,0.3,2
		c0.1-0.9,0.2-1.2,0.4,1.7c0.1,1.7,0.3,1.9,0.4,0.8c0.2-1.4,0.3,2.5,0.5,1.9c0.2-0.7,0.4-3.2,0.6,2.4c0.2-0.9,0.5,3.5,0.7,1.3
		c0.3,1.9,0.5-0.5,0.8-0.2c0.8,1.1,1.5,6.6,2.2,4c0.6,3.3,1.2,0.4,1.7,2.3c0.5,2.6,1,2.5,1.4,1.7c0.4,0.4,0.7,0.2,1,2.9
		c0.3-2.5,0.5-2.4,0.7-0.7c0.2-1.3,0.4,1.3,0.5,3.7c0.1,1,0.2-3.2,0.3,1c0.1-2.5,0.1,0.6,0.1,0.6c0,0,0-2.6,0.1-2.1
		c0,1.3,0-1.5,0,2.6c0,1.9-0.3-1.4-0.8-0.3c-0.3,2-0.6-2.1-1,0.2c-0.4,1.4-0.8-2.2-1.3-1.2c-0.5-1.3-1,7.7-1.6-0.1
		c-0.6,1.8-1.2-4.8-1.8-1.5c-0.6-0.5-1.3-3.4-2-1.7c-0.7,0.7-1.4,2.4-2.2-0.5c-0.8-0.5-1.5-0.9-2.3-0.7c-0.8-0.6-1.6-2.7-2.4-2.1
		c-0.8-1-1.6-1.5-2.4-0.3c-0.8-0.1-1.6-3.8-2.4-3.1c-0.8-0.3-1.6-2.7-2.4-2.4c-0.8-0.8-1.5-1.7-2.3-1.5c-0.7-1.4-1.5,0.6-2.1-0.8
		c-0.7-3.4-1.4-3.8-2-3.5c-0.6,4.9-1.2-1.5-1.8-1.7c-0.5-3.2-1,0.6-1.5-3.1c-0.5,0.4-0.9-5.3-1.2-2.6c-0.4,1.8-0.6-1.9-0.9-2.6
		c-0.2-1.3-0.4,5.3-0.5-0.8c-0.1,0.1-0.1,3.4-0.1-4.8c0.1-2.8,0.1,2.2,0-3.8c0,4.6-0.1-3.3-0.2-2.5c-0.1-4.8-0.2-3.2-0.4-1.9
		c-0.2,3.4-0.6-0.4-0.9-2.2c-0.4,1.8-0.8-2.8-1.2-2c-0.4,3.9-0.9-1.7-1.4-1.2c-0.5,1-1-2.2-1.5-0.2c-0.5-2.3-1.1-3.6-1.6,1.6
		c-0.5-3.2-1-1.9-1.5-1.3c-0.5,1.1-0.9-3.2-1.3-0.2c-0.4,0.9-0.8,2.2-1.1,1.2c-0.6-0.6-1,0.8-1,0.6c0,0.5-0.2,0.1-0.5,0
		c-0.2-5.7-0.4-5.4-0.6-1.1c-0.3-0.1-0.5,0.3-0.9,0.8c-0.3-4.3-0.7-5.5-1-0.8c-0.4,2.6-0.8-1.4-1.2,0c-0.4,1.8-0.9-4.7-1.4-3.5
		c-0.5,3.1-1,7.9-1.5,1.8c-0.5-1.2-1.1,1.9-1.6-1.1c-0.6,2.2-1.1,0.6-1.7-1.8c-0.4-2.1-0.8-0.2-1.2,1.4c-0.4-3.6-0.8,1.5-1.2-1.9
		c-0.4-6.8-0.8-4.3-1.2-3.8c-0.6-7.2-1.2-2.3-1.8-3.7c-0.6,4.5-1.2-3.5-1.8-2.2c-0.4-1-0.8-3-1.2-0.9c-0.4-1.7-0.8-1.4-1.2-3.5
		c-0.4-1.9-0.8,6.4-1.1-3.5c0-4-0.1,7-0.3-0.9c-0.2,3.1-0.4,5-0.7,0.5c-0.3,0.7-0.6,0.1-1,0.3c-0.4-2.8-0.8,5.3-1.3-0.3
		c-0.5-1.5-1,6-1.6-1.3c-0.6-1.9-1.2,1.3-1.8,1.6c-0.6,0.9-1.3,0-2-2.4c-0.7-6.3-1.4-2.9-2.2,3.1c-0.8,4.3-1.5,3.2-2.3,0.2
		c-0.8,2.1-1.6-1-2.4,0.8c-0.8,6.5-1.6-0.8-2.5,2c-0.8-6.3-1.7,3.5-2.5-0.6c-0.8-0.8-1.7-3.3-2.5-1c-0.8-1.3-1.7,2-2.5,2.8
		c-0.8-0.4-1.6,2.2-2.4,0.8c-0.8,6.6-1.6-1.5-2.3,1.6c-0.8,2.7-1.5,1.7-2.2,1.4c-0.7,0.6-1.4,0.6-2.1,1.4c-0.7-0.7-1.3,2.8-1.9,1.6
		c-0.6,1.9-1.1-1.8-1.6,1.7c-0.5,3.7-1,3.6-1.4,2.5c-0.4,0.3-0.8-0.1-1.1,1.3c-0.4,2-0.7-5.8-0.9,2.8c-0.2,3.1-0.3,7.6-0.3,3.1
		c0,3,0.2,2.5,0.4,3.3c0.3,4.9,0.7-1,1.2,3.6c0.6,3.5,1.3,1.6,2.1,3.9c0.9,3.8,1.9,1.5,3.1,4.1c0.6-1,1.3,1.7,1.8,2.2
		c0.6-0.7,1.1-0.7,1.6,2.1c0.5,0.5,0.9,1.5,1.4,2c0.6,1.5,1.2,4.5,1.6,3.8c0.5-0.7,0.9,2.5,1.2,1.5c0.3-0.6,0.6-0.7,0.7,1.8
		c0.2,2.3,0.3-2.3,0.3,2.6c0-0.3,0,3.6-0.1,2.1c-0.1,1.4-0.2,3.2-0.4,1.3c-0.2,1.3-0.4-0.7-0.8,1c-0.3,3.8-0.7-0.3-1.1,1.6
		c-0.4,1.5-0.9-1.4-1.4-0.3c-0.5,1.6-1,1.3-1.6,2c-0.6,0-1.2,0.5-1.9,0.8s-1.4,0.5-2.1,0c-0.6-2.3-1.3,2.2-2,0.1
		c-0.7-2.8-1.4-2.4-2.1,0c-0.7,0.6-1.4,0.5-2.2,1.6c-0.8,3.3-1.5,2.4-2.3-2.2c-0.8-2.1-1.6-0.7-2.4-0.3c-0.8,2.7-1.6-1.1-2.4-0.9
		c-0.8-0.8-1.6-4.4-2.5-1.6c-0.8-0.2-1.7,2.3-2.5-0.2c-0.8-0.5-1.7,4.2-2.5,0.5c-0.8-2.8-1.7-2.4-2.5-2.8c-0.8-2.4-1.7-2.2-2.5-2.2
		c-0.8-3.8-1.6-1.7-2.4-0.6c-0.8-1.2-1.6-6.8-2.4-3.1c-0.8,0.4-1.6,1.2-2.3-0.3c-0.8-1.5-1.5-3.2-2.2-2.3
		C149.4,610,148.7,610.9,148,610.6z"/>
	<path class="st21" d="M108,754.6c0-0.6-0.1,2.2-0.2,2c-0.1-3.4-0.2,4.7-0.4-2.1c-0.2-2.8-0.4-1.2-0.7,0c-0.3,0.7-0.6-0.2-0.9-0.2
		c-0.3-3.4-0.7-3.4-1.1-0.8c-0.4,5.2-0.8,3.7-1.3,0.3c-0.5,0.6-1-0.8-1.5,0.2c-0.5,0-1.1-4.4-1.6-1c-0.6,1.4-1.1-0.1-1.7,1.6
		c-0.6,3.9-1.2-4.9-1.8-2.8c-0.6-1.7-1.3-2.8-1.9-2.3c-0.6,1.6-1.3-2.2-1.9,0.6c-0.7,4.3-1.3,2-2-1.7c-0.7,5.9-1.3-1.2-2-0.5
		c-0.7,2.8-1.3-3.8-2-3c-0.7-2.9-1.3-1.1-1.9,0.2c-0.6,0.9-1.3,0.2-1.9,0c-0.6-2.2-1.2-2-1.8-3.5c-0.4,1.6-0.8,5.2-1.1,3.7
		c-0.2-0.2-0.4-0.5-0.5-1s-0.4-1-0.5-1.8c-0.2-0.9-0.3-1.2-0.5-2.8c-0.2,1-0.3-2.8-0.5-2.4c-0.2,1.3-0.5,0-0.7,0.2
		c-0.2-0.5-0.5-0.6-0.7-2.6c-0.2,1-0.4,1-0.6-2.7c-0.2,0.2-0.4,3.4-0.6,0c-0.3,1.9-0.5,0.3-0.7,0.5c-0.2-1.7-0.4,0.8-0.6-2.2
		c-0.2,2.1-0.3,2.4-0.5-4.4c-0.2-0.8-0.4-7.4-0.6-4.8c-0.1-3.3-0.2-1.9-0.3-2.2c0-0.9,0-0.4,0-3c0,1.4,0.1,0.8,0.1-5.6
		c0.1,0.1,0.1-0.9,0.3,0.5c0.1-3.7,0.2-4.8,0.3-6.3c0.1-1.9,0.2-3.6,0.4-4.7c0.3-2.2,0.6-2.3,1,1.8c0.6-3.1,1-6.1,1.4-6.5
		c0.4-5.7,0.7-5.2,0.9-6.2c0.3-2,0.4-4,0.6-5.8c0.1-1.3,0.2-4.7,0.3-5.5c0.1-1.7,0.1-3.1,0-5.3c0-0.8,0-2-0.1-3.1
		c0,0.5-0.1-6.2-0.1-1.9c0,0.2-0.1,1.8-0.1-2.6c0-1.6-0.1-1.9-0.1-2.1c0-3.7-0.1,6.1-0.1-2.4c0,1.3-0.1-7.2-0.1-2.1
		c0-4.3-0.1,5.8-0.1-1.4c0-3.8-0.1,0.9-0.1-2.8c0-1.1,0,0.3-0.1-1.2c0,0.8,0-4.3,0-2.8c0-0.1,0,7.8,0-1.1c0-1.1,0.1,1.4,0.1-2.7
		c0,3.5,0.1-0.8,0.2-2.9c0.1-8.6,0.1,9.8,0.2-0.8c0.1,11.3,0.2,0.6,0.3-2c0.1,3.7,0.3,2.1,0.4-1.5c0.2-3.6,0.3,2.5,0.5-0.9
		c0.2-2.5,0.4-2.9,0.6-2.5c0.4-1.5,1-2.1,1.6-3.2c0.6,1.4,1.3-3.5,2.1-3.1c0.8,2,1.7,1.3,2.7-3c1-4.8,2.2-2.3,3.4-2.9
		c1.3,3,2.7-7.3,4.2-2.8c1.5-6.1,3.2,1.8,5-2.8c1.8,0.8,3.8-4.3,5.9-2.8c2.1-5.3,4.4-5.3,6.9-2.7c2.4,1,4.7-2.9,7-2.2
		c2.3-4.6,4.4-0.7,6.5-1.3c2.1,1.2,4.2,6,6.1-0.6c2-1.1,3.9-1.3,5.7,0.1c1.8,1.2,3.6,0.8,5.3,0.7c1.7,1.9,3.4,0.6,4.9,1.2
		c1.6,3.5,3.1,3.8,4.6,1.6c1.5,0.7,2.9,8.5,4.2,1.9c1.4-0.4,2.6-0.9,3.9,2.2c1.2-2.2,2.4,0.1,3.5,2.3c1.1,0.6,2.2,3.5,3.2,2.3
		c1-2.9,2,0.4,2.9,2.3c0.9,3.4,1.8,9.7,2.6,2.2c0.8-2.6,1.6-2.2,2.3,1.9c0.7,1.5,1.4,0.1,2,1.6c0.6,2.1,1.2-3.6,1.8,1.2
		c1.3-1.6,2,4.3,2.4,3.1c0.4,0.5,0.4,0.5,0.2,4.6c-0.2-0.7-0.7,5.7-1.4,5.4c-0.6,3.3-1.4,3.7-2.3,5.4s-1.7,3.4-2.4,4.8
		c-0.8,1.7-1.5,3.8-2,3.4c-0.3,0.4-0.4,0.8-0.6,1.6c-0.1,0.1-0.2,0.7-0.2-0.3c0,2.4-0.2,0.6-0.5-0.2c-0.3,2-0.9,0.3-1.5-0.3
		c-0.3-2.9-0.7-0.3-1.1-0.7c-0.4-0.9-0.8-3.7-1.3,0.3c-0.5,4.5-0.9,2.7-1.5,0c-0.5-0.8-1.1,1.3-1.6-0.4c-0.6,2.8-1.2,2.8-1.8-0.1
		c-0.6-4.8-1.3-2.2-1.9-0.1c-0.7,2.1-1.4-3.4-2.1,0.7c-0.7,1.8-1.4,0.7-2.2-0.5c-0.8,0.5-1.5,0.3-2.3,0.9c-0.8-0.4-1.6,4.5-2.4-0.3
		c-0.8,2.2-1.6,0.4-2.4,0c-0.8-3.3-1.7,9.8-2.5,1.2c-0.9,0-1.7-1.1-2.6-0.5c-0.9,5.9-1.7-6.3-2.6,2.5c-0.9,1.8-1.7,3.2-2.6,2.3
		c-0.9-0.9-1.8,2.4-2.6,0.5c-0.6-3.9-1.2-3.5-1.7-2.1c-0.6,1.1-1.2,1.6-1.7,1.7c-0.6-6.5-1.1,0.5-1.7,4.2c-0.9,4.2-1.7,1.4-2.6,2
		c-0.8-5.3-1.7,2.1-2.5,3c-0.6,5.6-1.1,2.3-1.6,1.8c-0.5,0.3-1.1,7.1-1.6,1.6c-0.5,0.2-1.1,2.2-1.6,2.8c-0.4-3.1-0.7,0.5-1.1,1.3
		c-0.3,1.5-0.6,2.7-0.8,2.8c-0.3,1.8-0.5,1.2-0.7,3.3c-0.2,0.9-0.3,1.5-0.5,1.7c-0.3,0.8-0.4,2-0.5,5.6c-0.1-5.7-0.1-1.1,0,6
		c0.1-2.8,0.2,2.4,0.4,5.9c0.2-2.3,0.4,14.6,0.6,5.6c0.2-1,0.5,9.8,0.7,4.9c0.2-2.4,0.5,2,0.7,3.9c0.1-2.2,0.2-1.6,0.3-0.5
		c0.1,0.6,0.2,0.9,0.2,3.1c0.1,0.7,0.1,1.3,0.1,0.8c0,0.3,0.1,0.1,0.1,0.1c0-2,0,0.2,0,0.9c0,0.9,0-2.7-0.1,2.5c0-2.6-0.1,2.8-0.1,0
		c-0.1,0.1-0.1,3.9-0.2,1c-0.1-0.7-0.2,4.6-0.3,2.7c-0.1,10.2-0.3,6.2-0.4,5.5c-0.2,4.4-0.3-5.5-0.5-1c-0.1-1-0.3-4.5-0.4-2.1
		c-0.2,4.9-0.3,6.9-0.5,2c-0.2,1.2-0.4,1.3-0.6,5.1c-0.3-1.3-0.7,2.6-1.1,2.5c-0.4-1.6-0.8,3.9-1.3,2.8c-0.3-0.4-0.6,0.8-1,2.3
		c-0.7,3-1.4,7.3-2.3,3c-0.4,1.3-0.8,1.9-1.3,3.5c-0.5,1.9-0.9,3-1.4,2C109.1,756.6,108.5,756.9,108,754.6z"/>
	<path class="st12" d="M193,687.6c0,0-28-30-20-54s17.9-38.1,55-33c44,6,42,48,42,48l-11.3,40.2c0,0-8.7,18.8,11.3,18.8
		c7.1,0-47,0-47,0S191,697.6,193,687.6z"/>
	<path class="st12" d="M183.5,663.1c0-6.6,3.5-12,9-12s11,5.4,11,12s-5.5,12-11,12S183.5,669.8,183.5,663.1z"/>
	<path class="st7" d="M185.5,663.5c0-3.8,2-6.9,5.2-6.9s6.3,3.1,6.3,6.9s-3.1,6.9-6.3,6.9C187.5,670.4,185.5,667.3,185.5,663.5z"/>
	<path class="st7" d="M260,620.6c0,0,7-6-5-6s-32.7,3.6-57,34c-4,5,7-3,7-3S230,615.6,260,620.6z"/>
	<path class="st12" d="M201,676.6c0,0,71.5,47.5,87.5-34.5c2.9-14.8-82.6,18.4-82.6,18.4S211,666.6,201,676.6z"/>
	<path class="st22" d="M233,667.5c0,5-1.8,9.1-3,9.1s0-4.1,0-9.1s-2-10.5-0.8-10.5C230.5,657,233,662.5,233,667.5z"/>
	<path class="st22" d="M242,665.8c0,6-2,10.8-3.4,10.8s0-4.8,0-10.8c0-6-1.4-12.5,0-12.5C242,653.3,242,659.8,242,665.8z"/>
	<path class="st22" d="M251.8,664.5c-0.3,6.7-5,12.1-6.5,12.1s1.9-6.5,1.9-12.1c0-6.5-1.9-14,2.8-14
		C253.6,650.5,252,659.8,251.8,664.5z"/>
	<path class="st22" d="M262,662.6c-1,4-5.9,12.1-7.5,12.1c-1.6,0,1.8-6.3,2.8-12.1c1.1-6.5,0-14.9,4.7-14.9
		C265.8,647.7,263,658.9,262,662.6z"/>
	<path class="st22" d="M272.3,660.8c-2.8,8.4-7.8,13.1-9.3,13.1s3.1-7.4,4.7-13.1c1.9-6.6,0.9-14.9,5.6-14.9
		C277,645.8,273.5,657.1,272.3,660.8z"/>
	<path class="st22" d="M280.7,659.8c-1.2,3.3-5.2,13.3-10.3,13.1c-1.5-0.1,7-6.7,8.4-16.8c1.3-9.4,1.9-11.3,3.7-11.2
		C285.5,645.1,281.3,658.1,280.7,659.8z"/>
	<path d="M250,635.6c0,0,0-6-3-6s-29,13-31,14s-1,5,3,3S249,634.6,250,635.6z"/>
	<path d="M256,628.6c0,0,3,3,3,5s12,1,12,1S270,628.6,256,628.6z"/>
	<path class="st7" d="M207,659.6c0,0,37.5-29.5,78-22c6.1,1.1,2.2,2.7-1,3.4c-1.6,0.4-3.4,0.5-5,0.3c-7-0.6-22,0.3-70,18.3
		C203.5,661.7,207,659.6,207,659.6z"/>
</g>
<path class="st23" d="M242-76.7c0,0-4.7,2.8-4.7,7.6c0,4.4-3.2,18.9-2.6,24.6c0.1,0.6-6.3-9-8.2-5.5c-4.6,8.2-6.4,18.2-3.5,19.1
	c0.7,0.3,2.3,4.4,6.2,8.3c2.4,2.4,6.7-1.5,6.4,0.9c-0.6,4.3,1.8,9.1,1.8,9.1s2.7,7.3,7.5,9.7c7,3.5,10.2,6.2,11.6,7.8
	c1.5,1.8,3.7,2.9,6,3.3c3.4,0.6,5.2,0.4,9.5-1.7c5.5-2.7,11.3-5,14.6-7.3c3.1-2.2,3.5-7.9,6.4-13.7s5.5-17,4.6-22.8
	c-0.5-3,0.2-6.1,1.1-8.3c1.1-2.9,1.7-6,1.7-9.1v-5.4c0-1.9-0.9-9.1-5.5-15.5c-0.8-1.1-2.7-2.7-6.4-5.5C277.7-89,259.5-89.3,242-76.7
	z"/>
<path class="st24" d="M290.8-45c0,0,4.7,5.8-1.7,6.8c-6.4,1.1-7.5-3.2-7.5-3.2s0.1-4.3,2.2-4.3c1.6,0,5.1,0,7.6,0.9L290.8-45z"/>
<path class="st23" d="M283.8-50.9c0,0-3.2,4.3-4.3,6.4s-1.2,12.4,4.3,17c1.2,1,3.3,3.3,0.1,6.4c-3.2,3.2-4.3,2.3-4.3,2.3
	s-3.2,0-3.2-1.1s-4.1-3.2-5.1-2.2c-2,2,0,1,0,1s-1.9,2.2-4-1s2-4,2-4"/>
<path class="st25" d="M277.4-19.1c-2-1-4-2-5.9-1.4c-1.7,0.6-0.3-0.7-0.1-1c0.2-0.3,0-0.5,1.7,0C274.4-21.1,277.7-18.9,277.4-19.1z"
	/>
<path class="st25" d="M281.3-19.8c0.2,0.3,3-1,3.2-2c0.1-0.4-1.2-0.7-1.8,0C281.5-20.3,281.1-20.1,281.3-19.8z"/>
<g id="UnderHair" class="st26">
	<path class="st27" d="M640.1,75.1c0,0,0,8.5,5.3,11.7c4.5,2.7,7.5,2,8.8,1.4c0.4-0.2,0.2,3.5,0.2,3.9c0.6,4.4,4.2,21.1,12.2,24.4
		c0.7,0.3,4.8-0.5,10.6-1.1c0.7-0.1,8.5-2.7,10.2,4.6c0.8,3.3,3.1-9.4,3.1-9.4l4.3-7.4l-6.8,24.2c0,0,0,4.9-2.2,5.5
		c-2.2,0.6-9.7,3.8-17.1-0.5s-2.7-5.2-9.6-8.2c-12.7-5.6-18.1-12-18.1-12s-5.3-4.3-5.3-11.7c0-11.1,0-28.7,0-28.7L640.1,75.1z"/>
</g>
<path class="st28" d="M701.2,52.3c0,0-1.1-11.7-5.3-13.8c-4.3-2.1-12.8,1.1-13.8,3.2c-1.1,2.1-9.6-8.5-19.1-8.5
	c-9.6,0-19.1,12.8-19.1,12.8s1.1,5.3,2.1,6.4c1.1,1.1-5.3,4.3-5.3,7.4s-1.1,14.9-1.1,14.9l-4.3-3.2c0,0-6.4-10.6-8.5-9.6
	c-2.1,1.1-4.3-28.7-1.1-30.8c8.3-5.6,24.7-6.4,53.1-3.2C707.6,31,701.2,52.3,701.2,52.3z"/>
<path class="st25" d="M244.1-55.6c-0.1,0.1-0.3,0-0.2-0.2c1.5-2.2,7.2-7.2,14.5-5.4c8.5,2.1,6.6,2,14,2c2.1,0-3,2-3,2
	s-8.8-1.6-11-2.3C253.7-61,252.8-61.8,244.1-55.6z"/>
<path class="st25" d="M284.9-50.9c0,0-0.5-0.2-3.2-1.1c-0.3-0.1,0.7-0.1,2.1-1.2c1.6-1.2,1.1,1.1,1.1,1.1s13.9,1,12.8,4.3
	c-0.2,0.7-0.1,0.1-0.1,0.1S298.7-49.8,284.9-50.9z"/>
<g>
	<path d="M245.5-46.7c1.5-1.5,3.1-2.8,4.8-4c1.7-1.2,3.6-2.2,5.6-3c1-0.3,2.1-0.6,3.2-0.7c1.1-0.1,2.3,0,3.3,0.4
		c1.1,0.4,1.9,1.3,2.5,2.2c0.5,1,0.9,2,1,3l-0.3,0.1c-0.4-1-0.8-1.9-1.4-2.7c-0.6-0.8-1.4-1.4-2.3-1.7c-1.8-0.6-3.8-0.2-5.7,0.5
		c-1.9,0.7-3.7,1.6-5.5,2.7c-1.8,1-3.5,2.2-5.2,3.3L245.5-46.7z"/>
</g>
<path class="st29" d="M263.6-47.7c0,0,2.3,7.4-0.9,8.5c-2.7,0.9-7.4,0.3-9.1,0.1c-0.3,0-0.7-0.1-0.9-0.3c-1.1-0.6-3-2.3-3.9-4
	c-0.9-1.8,3.3-4.2,4.8-5c0.3-0.2,0.7-0.3,1.1-0.3c1.5-0.1,5.5-0.2,8.8,0.7L263.6-47.7z"/>
<path class="st30" d="M260.4-43.5c0,2.8-2.7,4.3-5.3,4.3c-3.2,0-4.5-2.6-5.4-4.3c-0.9-1.8,3.3-4.2,4.8-5c0.3-0.2,0.7-0.3,1.1-0.3
	C259.4-48.8,260.4-45.6,260.4-43.5z"/>
<path d="M258.3-43.5c0,2.8-5.4,4.2-5.7,4c-1.1-0.6-4-2.1-3.9-4c0.1-2.1,3.3-4.2,4.8-5c0.3-0.2,0.7-0.3,1.1-0.3
	C256.1-48.9,258.3-45.6,258.3-43.5z"/>
<g>
	<path d="M263.7-47.7c0.6,1.9,1,3.9,0.9,5.9c0,0.5-0.2,1-0.4,1.5c-0.2,0.5-0.6,0.9-1.1,1.2c-1,0.4-2,0.5-3,0.6c-2,0.1-4,0-6-0.3
		c-0.5-0.1-1.1-0.1-1.6-0.4c-0.5-0.2-0.9-0.5-1.3-0.7c-0.9-0.5-1.8-1.1-2.4-2c-0.3-0.5-0.6-1.1-0.5-1.7c0-0.6,0.3-1.2,0.5-1.6
		c0.6-0.9,1.3-1.7,2.2-2.3c0.4-0.3,0.8-0.6,1.3-0.9l0.7-0.4c0.2-0.1,0.4-0.3,0.8-0.4c0.3-0.1,0.6-0.2,0.9-0.2l0.8,0c0.5,0,1,0,1.5,0
		c2,0,4.1,0.2,6,0.7c1,0.3,2,0.6,2.9,1.1c0.9,0.5,1.8,1.2,2.4,2l-0.5,0.4c-1.2-1.4-3.2-2-5-2.4c-1.9-0.3-3.8-0.5-5.8-0.5
		c-0.5,0-1,0-1.5,0l-0.7,0.1c-0.2,0-0.4,0.1-0.5,0.1c-0.2,0.1-0.4,0.2-0.6,0.3l-0.6,0.4c-0.4,0.3-0.8,0.5-1.2,0.8
		c-0.7,0.6-1.5,1.2-2,1.9c-0.3,0.4-0.4,0.8-0.5,1.1c-0.1,0.4,0,0.7,0.3,1.1c0.5,0.7,1.2,1.3,2,1.9c0.4,0.3,0.8,0.5,1.3,0.8
		c0.4,0.2,0.8,0.3,1.3,0.3c2,0.3,3.9,0.4,5.9,0.3c1-0.1,2-0.2,2.8-0.5c0.8-0.4,1.2-1.3,1.3-2.3C264.4-43.8,264-45.8,263.7-47.7
		L263.7-47.7z"/>
</g>
<path class="st30" d="M286.9-38.2c-3.8,0-5.3-3.2-5.3-3.2s0.3-4.3,2.8-4.3c1.9,0,2.3,0,2.3,0s2.4,1.1,2.4,3.2
	C289.1-38.2,287-38.2,286.9-38.2z"/>
<path d="M284.9-38.2c-2.1,0-3.3-3.2-3.3-3.2s0.1-4.3,2.2-4.3c1.6,0,0,0,0,0s3.2,0,3.8,2.8C288-41.3,287-38.2,284.9-38.2z"/>
<g>
	<path d="M291.4-44.1c0.4,0.5,0.8,1.1,1,1.8c0.3,0.6,0.4,1.3,0.2,2.1c-0.2,0.7-0.7,1.3-1.3,1.6c-0.6,0.4-1.3,0.5-2,0.7
		c-1.3,0.3-2.7,0.3-4.1,0c-1.4-0.3-2.7-1-3.5-2.3c-0.4-0.7-0.5-1.4-0.5-2.2c0.1-0.7,0.2-1.4,0.5-2.1c0.2-0.3,0.3-0.7,0.6-1
		c0.3-0.3,0.7-0.5,1.2-0.6c0.8,0,1.4,0,2.1,0c1.4,0,2.8,0.1,4.1,0.4c1.4,0.3,2.8,0.7,4,1.8l-1,0.9c-0.8-0.8-2-1.3-3.3-1.6
		c-1.3-0.3-2.6-0.4-3.9-0.5c-0.7,0-1.4-0.1-2-0.1c-0.5,0-0.9,0.4-1.1,1c-0.3,0.6-0.4,1.2-0.5,1.8c-0.1,0.6,0,1.2,0.3,1.8
		c0.6,1.1,1.8,1.8,3,2.1c1.3,0.3,2.6,0.3,3.9,0.1c0.7-0.1,1.3-0.3,1.9-0.6c0.6-0.3,1.1-0.8,1.2-1.4c0.2-0.6,0.1-1.3-0.2-1.9
		c-0.2-0.6-0.5-1.2-0.9-1.8L291.4-44.1z"/>
</g>
<g>
	<path d="M256.7-16.9c1.3,2.1,3,4,4.9,5.7s4,3.1,6.2,4.2s4.7,1.8,7.2,2.2l1.9,0.2l1.9,0c0.3,0,0.6,0,1,0l1-0.1l1.9-0.2l0.1,0.7
		l-1.9,0.2l-1,0.1c-0.3,0-0.7,0-1,0l-2,0l-2-0.2c-2.6-0.3-5.2-1-7.6-2.1s-4.6-2.5-6.7-4.2c-2-1.7-3.8-3.6-5.3-5.9L256.7-16.9z"/>
</g>
<g>
	<path d="M281.6-46.8c0.7-0.9,1.6-1.7,2.7-2.2c1.1-0.5,2.3-0.7,3.5-0.5c1.2,0.2,2.3,0.7,3.3,1.4c0.5,0.3,0.9,0.7,1.3,1.1l1.1,1.3
		l-0.3,0.2l-1.2-1.2c-0.5-0.3-0.9-0.7-1.3-1c-0.9-0.6-1.9-1-3-1.2c-2.1-0.3-4.3,0.8-5.9,2.2L281.6-46.8z"/>
</g>
<g id="Hair" class="st26">
	<path class="st27" d="M694.8,37.9c0,0,6.9-13.7,2.7-20.1S689,9.3,689,7.1s0,4.3,3.2,7.4s-5.3-2.1-10.6-2.1s1.1,27.6,1.1,27.6
		S694.3,36.7,694.8,37.9z"/>
	<path class="st27" d="M666.1,32.3c0,0-2.3-12.7-29.2-9.2c-3,0.4-6.2,2.5-7.5,3.7c-0.3,0.3-3.1,1.5-3.8,3c-1.6,3.3-1.6,8-1.9,8.6
		c-0.2,0.6,0.9-2.9,1.9-4.8c0.7-1.3,1.3-1.4,1.3-1c-0.1,2.3,0.5,4.2,0.5,4.2s2.7-9,7.4-8.5c0.3,0-1.1-0.2-1.6,2
		c-0.7,3,0.5,6.5,0.5,6.5s1.9-4.9,3.9-7.3c1.7-2,3.6-1.6,4.6-1.2c1.1,0.5-0.5-0.5-2.9,4.7c-0.9,2.1,0.2,4.4,0.8,5.9
		c0.6,1.8,0.8-1.7,2.3-5.2c1.2-2.7,2.6-2.2,4-2.2c1.7,0,0-1-1.8,1.5c-1.5,2.1-0.8,4.4-0.4,5.9c0.5,1.6,2.3-4.2,6.5-7
		C654.7,29.4,660.8,28.5,666.1,32.3z"/>
	<path class="st27" d="M645.4,11.4c0,0-9.6,4.3-9.6,8.5s-8.5,4.3-8.5,7.4s12.8-7.4,14.9-4.3s8.5,2.1,8.5,2.1s-3.8,2-3,4.2
		s5.6-4.7,20,1.1C670.8,31.8,662.4,7.1,645.4,11.4z"/>
	<path class="st31" d="M681.6,41.1c0,0-3.2-3.2-6.4-4.3s-9-2.2-9.3-7c-0.3-4.7-12-9-15.2-7.9s1.1-5.3,2.1-7.4s-5.3,0-5.3,0
		s5.3-15.9,25.5-7.4C701.5,19.1,681.6,41.1,681.6,41.1z"/>
</g>
<g>
	<path d="M226.7-45.3c1.8,1.3,3.7,2.5,5.6,3.7c0.9,0.6,1.9,1.2,2.8,1.9c0.2,0.2,0.5,0.3,0.7,0.6c0.1,0.1,0.2,0.2,0.4,0.5
		c0.1,0.1,0.1,0.5,0.1,0.4l0,0.2c0,0.6,0,1.3-0.3,1.9c-0.6,1.2-1.6,1.8-2.6,2.5c-0.5,0.3-1,0.6-1.5,0.9c-0.1,0.1-0.3,0.2-0.3,0.2
		c0,0,0,0,0,0.1c0,0.2,0.1,0.4,0.2,0.6c0.5,0.9,1.2,1.8,1.9,2.6c0.7,0.8,1.5,1.6,2.3,2.3l1.1,1l-1.5-0.2l0,0c-1.8-0.2-3.4-0.6-5-1.3
		c-1.6-0.7-3.2-1.8-4.2-3.4c-0.5-0.8-0.7-1.8-0.6-2.7c0.1-0.9,0.3-1.8,0.7-2.6c0.7-1.6,1.8-3,2.9-4.3l0.1,0.1
		c-1,1.3-1.9,2.8-2.4,4.4c-0.2,0.8-0.3,1.6-0.2,2.4c0.1,0.8,0.4,1.5,0.7,2.1c0.8,1.3,2.2,2.2,3.6,2.9c1.5,0.7,3.1,1.2,4.7,1.5l0,0
		l-0.4,0.8c-0.8-0.8-1.5-1.7-2.2-2.5c-0.7-0.9-1.4-1.7-2-2.8c-0.1-0.3-0.3-0.6-0.3-1c0-0.2,0.1-0.5,0.3-0.6c0.2-0.2,0.3-0.2,0.4-0.3
		c0.5-0.3,0.9-0.6,1.4-0.9c0.8-0.7,1.7-1.4,2-2.3c0.2-0.4,0.2-0.8,0.2-1.4l0-0.2c0,0,0-0.1,0,0c0,0,0,0.1,0,0.1c0,0-0.1-0.1-0.1-0.2
		c-0.2-0.2-0.4-0.3-0.6-0.5c-0.8-0.7-1.8-1.3-2.7-2c-1.8-1.3-3.6-2.6-5.2-4.3L226.7-45.3z"/>
</g>
<g>
	<path d="M253.4-16.3c0.8,0,1.6-0.1,2.2-0.4c0.6-0.3,1-0.8,1.6-1.5l0.4,0.2c0,0.4-0.1,0.9-0.4,1.3c-0.3,0.4-0.7,0.8-1.1,1
		c-0.9,0.4-2,0.3-2.7-0.2L253.4-16.3z"/>
</g>
<ellipse class="st32" cx="169" cy="85.6" rx="49.5" ry="41.5"/>
<image style="overflow:visible;enable-background:new    ;" width="425" height="639" xlink:href="B91C6329.jpeg"  transform="matrix(0.402 0 0 0.402 -58.9328 -77.364)">
</image>
<path id="Neck_1_" class="st33" d="M403.5,142.1c0,0,7,14-8,20c-19.6,7.8,53.3,27,53.3,27l4.7-17c0,0-7-3-5-7
	S409.5,155.1,403.5,142.1z"/>
<path class="st2" d="M378,155.6c2.7-4.7,26.2,0.9,44,14c6.3,4.6,10.4,5.4,16,9c18,11.6,30.9,8.7,31,11c0.1,2.2,0,12-34,6
	c-27-4.8-47.8-20.2-53-26C377.3,164.4,376.5,158.2,378,155.6z"/>
<g id="Head_1_">
	<path class="st34" d="M393.5,75.8c0,0-3.2,1.1-3.2,6.4c0,4.8-0.9,13.1-0.2,19.4c0.1,0.6-5.1,0.2-5.6,4.5c-1.1,8.5,0,15.9,3.2,17
		c0.8,0.3,1.1,5.3,5.3,9.6c2.6,2.6,7.8-4.5,7.4-1.8c-0.7,4.6,2.1,12.3,2.1,12.3s7,9,12.2,11.6c13.6,6.8,14,6.7,14,6.7
		s4.1,6.2,13.7,6.2s9.5-5.4,9.5-5.4s2.2-12.1,5.4-18.4s7.4-20.2,6.4-26.6c-1.1-6.4-2.1-8.5-2.1-8.5s5.3-3.2,5.3-5.3
		s-2.1-6.4-3.2-7.4s1.9-7.6,0-14.9C460,66.8,412.7,62,393.5,75.8z"/>
	<path class="st24" d="M458.9,108.2c0,0,3.7,4.8-2.7,5.8c-6.4,1.1-8.5-3.2-8.5-3.2s1.1-4.3,3.2-4.3c1.6,0,5.1,0,7.6,0.9L458.9,108.2
		z"/>
	<path class="st23" d="M450.9,101.3c0,0-3.2,4.3-4.3,6.4s3.2,15.9,4.3,17s5.3,4.3,2.1,7.4s-5.3,4.3-5.3,4.3s-3.2,0-3.2-1.1
		s-5.1-9.2-7.4-7.4c-3.1,2.3,0,2.1,0,2.1s-2.1,2.1-4.3-1.1s1.1-6.4,5.3-6.4"/>
	<path class="st25" d="M444.5,135.4c-0.3,0.4-3.7-3.2-5.5-4.3c-1.7-1.1-2.7-0.6-2.4-1c0.3-0.4,0.5-2.7,2.2-1.6
		S444.7,135,444.5,135.4z"/>
	<path class="st25" d="M448.4,135.4c0.3,0.4,4.5-2.6,5.5-4.3c0.4-0.8-0.1-1.1-1.6,0.3C448.9,134.4,448.1,135,448.4,135.4z"/>
	<g id="UnderHair_1_" class="st26">
		<path class="st27" d="M403.1,115.1c0,0,0,8.5,5.3,11.7c4.5,2.7,7.5,2,8.8,1.5c0.4-0.2,0.2,3.5,0.2,3.9c0.6,4.4,4.1,21.1,12.2,24.4
			c0.7,0.3,4.8-0.5,10.6-1.1c0.7-0.1,8.5-2.7,10.2,4.6c0.8,3.3,3.1-9.4,3.1-9.4l4.3-7.4l-6.8,24.2c0,0,0,4.9-2.2,5.5
			c-2.2,0.6-9.6,3.8-17.1-0.5s-2.7-5.2-9.6-8.2c-12.7-5.6-18.1-12-18.1-12s-5.3-4.3-5.3-11.7c0-11.1,0-28.7,0-28.7L403.1,115.1z"/>
	</g>
	<path class="st28" d="M464.2,92.3c0,0-1.1-11.7-5.3-13.8c-4.3-2.1-12.8,1.1-13.8,3.2c-1.1,2.1-9.6-8.5-19.1-8.5
		s-19.1,12.8-19.1,12.8s1.1,5.3,2.1,6.4c1.1,1.1-5.3,4.3-5.3,7.4s-1.1,14.9-1.1,14.9l-4.3-3.2c0,0-6.4-10.6-8.5-9.6
		c-2.1,1.1-4.3-28.7-1.1-30.8c8.3-5.6,24.7-6.3,53.1-3.2C470.6,71,464.2,92.3,464.2,92.3z"/>
	<path class="st25" d="M412.2,96.7c-0.1,0.1-0.3-0.1-0.2-0.2c1.5-2.2,7.2-9.8,14.5-7.9c8.5,2.1,7.4,3.2,14.9,3.2
		c2.1,0-3.2,3.2-3.2,3.2s-9.4-1.4-11.7-2.1C421.8,91.3,420.9,90.4,412.2,96.7z"/>
	<path class="st25" d="M452,101.3c0,0-4.3,1.1-3.2-1.1c1.1-2.1,2.6-1.1,2.1-3.2c-0.4-1.9,1.1,1.1,1.1,1.1s14.5,2.4,12.8,5.3
		c-1.6,2.7-1.1,1.1-1.1,1.1S465.8,102.4,452,101.3z"/>
	<g>
		<path d="M412.6,105.5c1.5-1.5,3.1-2.8,4.8-4c1.7-1.2,3.6-2.2,5.6-3c1-0.3,2.1-0.6,3.2-0.7c1.1-0.1,2.3,0,3.3,0.4
			c1.1,0.4,1.9,1.3,2.5,2.2c0.5,0.9,0.9,2,1,3l-0.3,0.1c-0.4-1-0.8-1.9-1.4-2.7c-0.6-0.8-1.4-1.4-2.3-1.7c-1.8-0.6-3.8-0.2-5.7,0.5
			c-1.9,0.7-3.7,1.6-5.5,2.7c-1.8,1.1-3.5,2.2-5.2,3.3L412.6,105.5z"/>
	</g>
	<path class="st29" d="M430.7,104.5c0,0,4.3,7.4,1.1,8.5c-2.7,0.9-8.4,0.3-10.1,0.1c-0.3,0-0.6-0.1-0.9-0.3c-1.1-0.6-4-2.3-4.9-4
		c-0.9-1.8,3.3-4.2,4.8-5c0.3-0.2,0.7-0.3,1.1-0.3c1.5-0.1,5.5-0.2,8.8,0.7L430.7,104.5z"/>
	<path class="st30" d="M427.6,108.8c0,2.8-1.7,4.3-4.3,4.3c-3.2,0-5.5-2.6-6.4-4.3c-0.9-1.8,3.3-4.2,4.8-5c0.3-0.2,0.7-0.3,1.1-0.3
		C426.5,103.4,427.6,106.6,427.6,108.8z"/>
	<path d="M425.4,108.8c0,2.8-4.4,4.2-4.7,4c-1.1-0.6-4-2.3-4.9-4c-0.9-1.8,3.3-4.2,4.8-5c0.3-0.2,0.7-0.3,1.1-0.3
		C423.2,103.3,425.4,106.6,425.4,108.8z"/>
	<g>
		<path d="M430.8,104.5c1,1.8,2,3.7,2.4,5.8c0.1,0.5,0.1,1.1,0,1.6c-0.1,0.6-0.5,1.1-1.1,1.3c-1,0.4-2.1,0.5-3.1,0.5
			c-2.1,0.1-4.2,0-6.2-0.2c-0.5-0.1-1-0.1-1.6-0.2c-0.6-0.2-1-0.5-1.5-0.7c-0.9-0.5-1.8-1.1-2.6-1.8c-0.4-0.3-0.8-0.7-1.1-1.2
			c-0.2-0.2-0.3-0.4-0.5-0.8c-0.1-0.2-0.1-0.3-0.1-0.5c0-0.2,0-0.3,0.1-0.5c0.4-1.3,1.3-1.9,2.1-2.6c0.8-0.7,1.7-1.3,2.6-1.8
			c0.4-0.3,1.2-0.6,1.7-0.6c0.5-0.1,1-0.1,1.6-0.1c2.1-0.1,4.2,0,6.4,0.4c1.1,0.2,2.1,0.5,3.2,0.9c1,0.5,2.1,1.1,2.9,2.1l-1.7,1.3
			c-1-1.3-2.8-2.1-4.7-2.6c-1.9-0.5-4-0.6-6-0.6c-0.5,0-1,0-1.5,0c-0.5,0-0.7,0.1-1.2,0.3c-0.9,0.5-1.8,1-2.6,1.6
			c-0.8,0.6-1.6,1.3-1.9,2c0,0.1-0.1,0.2,0,0.3c0,0.1,0,0.2,0,0.2c0,0.1,0.2,0.4,0.3,0.6c0.3,0.4,0.6,0.7,1,1.1
			c0.7,0.7,1.6,1.3,2.4,1.8c0.4,0.3,0.9,0.6,1.3,0.7c0.4,0.1,1,0.2,1.5,0.2c2,0.2,4.1,0.4,6.1,0.3c1-0.1,2.1-0.1,3-0.4
			c0.4-0.2,0.7-0.5,0.8-0.9c0.1-0.4,0.1-0.9,0.1-1.4C432.5,108.3,431.6,106.4,430.8,104.5L430.8,104.5z"/>
	</g>
	<path class="st30" d="M454,114.1c-3.8,0-6.3-3.2-6.3-3.2s1.3-4.3,3.8-4.3c1.9,0,1.3,0,1.3,0s2.4,1.1,2.4,3.2
		C455.2,114.1,454.1,114.1,454,114.1z"/>
	<path d="M452,114.1c-2.1,0-4.3-3.2-4.3-3.2s1.1-4.3,3.2-4.3c1.6,0,0,0,0,0s2.2,0,2.9,2.8C454.1,110.9,454.1,114.1,452,114.1z"/>
	<g>
		<path d="M459,108.2c0.5,0.6,0.8,1.3,1,2c0.2,0.7,0.2,1.6-0.3,2.3c-0.4,0.7-1.1,1.1-1.9,1.4c-0.7,0.3-1.5,0.4-2.2,0.5
			c-1.5,0.2-3.1,0.2-4.5-0.4c-1.5-0.5-2.8-1.5-3.6-2.9l-0.1-0.1l0-0.1l0,0c0.4-1.3,0.8-2.6,1.7-3.7c0.2-0.3,0.5-0.5,0.9-0.7
			c0.2-0.1,0.4-0.2,0.6-0.2c0.2,0,0.4,0,0.6,0c0.6,0,1.3,0,2,0c1.3,0,2.6,0.1,4,0.4c1.3,0.3,2.7,0.7,3.9,1.7l-1,0.9
			c-0.8-0.8-2-1.2-3.2-1.5c-1.2-0.3-2.5-0.4-3.8-0.5c-0.6,0-1.3-0.1-1.9-0.1c-0.2,0-0.3,0-0.4,0c-0.1,0-0.2,0.1-0.4,0.1
			c-0.2,0.1-0.5,0.3-0.6,0.5c-0.8,0.9-1.3,2.1-1.7,3.3l0,0l0-0.2c0.7,1.2,1.9,2.2,3.2,2.7c1.3,0.6,2.9,0.7,4.3,0.5
			c0.7-0.1,1.5-0.2,2.2-0.4c0.7-0.2,1.4-0.6,1.8-1.2s0.5-1.4,0.3-2.1s-0.5-1.4-0.9-2L459,108.2z"/>
	</g>
	<g>
		<path d="M423.9,135.3c1.3,2.1,3,4,4.9,5.7s4,3.1,6.2,4.2c2.3,1.1,4.7,1.8,7.2,2.2l1.9,0.2l1.9,0c0.3,0,0.6,0,1,0l1-0.1l1.9-0.1
			l0.1,0.7l-1.9,0.2l-1,0.1c-0.3,0-0.6,0-1,0l-2,0l-2-0.2c-2.6-0.3-5.2-1-7.6-2.1c-2.4-1.1-4.6-2.5-6.6-4.2c-2-1.7-3.8-3.6-5.3-5.9
			L423.9,135.3z"/>
	</g>
	<g>
		<path d="M448.7,105.5c0.7-0.9,1.6-1.7,2.7-2.2c1.1-0.5,2.3-0.7,3.5-0.5c1.2,0.2,2.3,0.7,3.3,1.4c0.5,0.3,0.9,0.7,1.3,1.1l1.1,1.3
			l-0.3,0.2l-1.2-1.2c-0.5-0.3-0.9-0.7-1.3-1c-0.9-0.6-1.9-1-3-1.2c-2.1-0.3-4.3,0.8-5.9,2.2L448.7,105.5z"/>
	</g>
	<g id="Hair_1_" class="st26">
		<path class="st27" d="M457.8,77.9c0,0,6.9-13.7,2.7-20.1s-8.5-8.5-8.5-10.6s0,4.3,3.2,7.4s-5.3-2.1-10.6-2.1
			c-5.3,0,1.1,27.6,1.1,27.6S457.3,76.7,457.8,77.9z"/>
		<path class="st27" d="M429.1,72.3c0,0-2.4-12.7-29.2-9.2c-3,0.4-6.2,2.5-7.5,3.7c-0.3,0.3-3.1,1.5-3.9,3c-1.6,3.3-1.6,8-1.9,8.7
			c-0.2,0.6,0.9-2.9,1.9-4.8c0.7-1.3,1.3-1.4,1.3-1c-0.1,2.3,0.5,4.2,0.5,4.2s2.7-9,7.4-8.5c0.3,0-1.1-0.2-1.6,2
			c-0.7,3,0.5,6.5,0.5,6.5s1.9-4.9,3.9-7.3c1.7-2,3.6-1.7,4.6-1.2c1.1,0.6-0.5-0.5-2.9,4.7c-0.9,2.1,0.2,4.4,0.8,5.9
			c0.6,1.8,0.8-1.7,2.3-5.2c1.2-2.7,2.6-2.2,4-2.2c1.7,0,0-1-1.8,1.6c-1.5,2.1-0.8,4.4-0.4,5.9c0.5,1.6,2.3-4.2,6.5-7
			C417.7,69.4,423.8,68.5,429.1,72.3z"/>
		<path class="st27" d="M408.4,51.4c0,0-9.6,4.3-9.6,8.5s-8.5,4.3-8.5,7.4s12.8-7.4,14.9-4.3c2.1,3.2,8.5,2.1,8.5,2.1s-3.8,2-3,4.2
			s5.6-4.7,20,1.1C433.9,71.8,425.4,47.1,408.4,51.4z"/>
		<path class="st31" d="M444.6,81.1c0,0-3.2-3.2-6.4-4.3s-9-2.2-9.3-6.9c-0.3-4.7-12-9-15.1-7.9s1.1-5.3,2.1-7.4
			c1.1-2.1-5.3,0-5.3,0s5.3-15.9,25.5-7.4C464.5,59.1,444.6,81.1,444.6,81.1z"/>
	</g>
	<g>
		<path d="M387.8,105c2,1.1,3.9,2.2,5.7,3.5c0.9,0.6,1.8,1.3,2.7,2c0.2,0.2,0.4,0.4,0.7,0.6c0.1,0.1,0.2,0.2,0.3,0.5
			c0,0.1,0.1,0.1,0.1,0.2c0,0.2,0,0.2,0,0.2l0,0.2c0,0.6,0,1.3-0.3,1.9c-0.6,1.2-1.6,1.8-2.6,2.5c-0.5,0.3-1,0.6-1.5,0.9l-0.2,0.1
			c-0.1,0-0.1,0.1-0.1,0.1c0,0,0,0,0,0.1c0,0.2,0.1,0.4,0.2,0.6c0.5,0.9,1.2,1.8,1.9,2.6c0.7,0.8,1.5,1.6,2.3,2.3l1.1,1l-1.5-0.2
			l0,0c-1.8-0.2-3.4-0.6-5.1-1.3c-1.6-0.7-3.2-1.8-4.2-3.4c-0.5-0.8-0.7-1.8-0.6-2.7s0.3-1.8,0.7-2.6c0.7-1.6,1.8-3,2.9-4.3l0.1,0.1
			c-1,1.3-1.9,2.8-2.4,4.4c-0.2,0.8-0.3,1.6-0.2,2.4c0.1,0.8,0.4,1.5,0.7,2.1c0.8,1.3,2.1,2.2,3.6,2.9c1.5,0.7,3.1,1.2,4.7,1.5l0,0
			l-0.4,0.8c-0.8-0.8-1.5-1.7-2.3-2.5c-0.7-0.9-1.4-1.7-2-2.8c-0.1-0.3-0.3-0.6-0.3-1c0-0.2,0.1-0.5,0.3-0.6
			c0.1-0.1,0.2-0.1,0.2-0.2l0.2-0.1c0.5-0.3,0.9-0.6,1.4-0.9c0.8-0.7,1.7-1.4,2-2.3c0.2-0.4,0.2-0.8,0.2-1.4l0-0.2c0,0,0-0.1,0,0
			c0,0,0,0,0,0c0,0-0.1-0.1-0.1-0.2c-0.1-0.2-0.3-0.4-0.5-0.6c-0.8-0.7-1.7-1.4-2.5-2.1c-1.7-1.4-3.5-2.7-5.3-4.1L387.8,105z"/>
	</g>
</g>
<g>
	<path d="M420.6,136c0.8,0,1.6-0.1,2.2-0.4c0.6-0.3,1-0.8,1.6-1.5l0.4,0.1c0,0.4-0.1,0.9-0.4,1.3c-0.3,0.4-0.7,0.8-1.1,1
		c-0.9,0.4-2,0.3-2.7-0.2L420.6,136z"/>
</g>
<g>
	<path d="M415.9,108.8c0-0.2,0.1-0.4,0.1-0.7c0.1-0.2-3.8-2.5-3.8-2.5s4.3,1.5,4.5,1.3c0.3-0.4,0.6-0.7,1-1c0.1-0.1-1.7-2.2-1.7-2.2
		s2.2,1.7,2.4,1.6s0.2-0.2,0.4-0.3c0.2-0.2-0.3-1.5-0.3-1.5s1.2,0.9,1.3,0.8c0.1-0.1,0.3-0.2,0.4-0.3c0.2-0.1,0.5-1.3,0.5-1.3
		s0.7,0.7,1.1,0.7"/>
	<path d="M415.8,108.8c0-0.2,0-0.5,0-0.7c0,0,0-0.1,0,0c0,0.1,0,0,0,0.1l0,0l-0.1-0.1l-0.3-0.2c-0.4-0.2-0.7-0.5-1.1-0.7l-2.2-1.4
		l-1.7-1l1.9,0.6l2.1,0.7c0.7,0.2,1.4,0.4,2.1,0.6c0.1,0,0.2,0,0,0.1l0.2-0.2c0.1-0.2,0.3-0.3,0.4-0.4s0.3-0.3,0.4-0.4
		c0,0-0.1,0.2-0.1,0.2c0,0,0,0,0,0c0,0,0,0,0,0l0,0l-0.1-0.1l-0.1-0.2c-0.4-0.6-0.9-1.1-1.4-1.7l-1.9-2.2l2.3,1.7
		c0.6,0.5,1.3,1,2,1.4c0.1,0.1,0.2,0.1,0.2,0.1c0,0,0,0,0,0c0,0,0,0-0.1,0c-0.2,0.1-0.1,0.1-0.1,0.1l0.1-0.1l0.1-0.1l0.1-0.1
		c0,0,0.1-0.1,0,0c-0.1,0.1-0.1,0.1-0.1,0.1c0,0,0,0,0,0s0-0.1,0-0.1c-0.1-0.3-0.2-0.7-0.4-1l-0.7-1.4l1.4,0.9
		c0.2,0.2,0.5,0.3,0.7,0.4c0.1,0.1,0.2,0.1,0.4,0.2c0,0,0,0,0.1,0c0,0,0.1,0-0.1,0c-0.1,0-0.3,0.1-0.3,0.1l0,0l0,0l0.1-0.1l0.2-0.1
		l0,0l0,0c0,0,0,0,0,0c0,0-0.1,0.1,0,0.1c0,0,0,0,0,0c0-0.1,0.1-0.2,0.1-0.3c0.1-0.3,0.1-0.5,0.2-0.8l0.3-1l0.8,0.8
		c0.1,0.1,0.3,0.3,0.4,0.3c0.1,0.1,0.1,0.1,0.2,0.1c0,0,0.1,0,0,0l0.1,1.4c-0.4,0-0.5-0.1-0.7-0.2c-0.1-0.1-0.3-0.2-0.4-0.2
		c-0.2-0.2-0.4-0.3-0.6-0.5l1.1-0.3c-0.1,0.3-0.2,0.6-0.3,0.9c-0.1,0.2-0.1,0.3-0.3,0.5l-0.1,0.1c0,0,0,0.1-0.1,0.1
		c0,0-0.1,0.1-0.1,0.1l0,0l0,0l-0.2,0.1l-0.1,0l0,0l0,0c0,0-0.2,0.1-0.3,0.1c-0.3,0-0.2-0.1-0.3-0.1l-0.1-0.1
		c-0.1-0.1-0.3-0.2-0.4-0.3l-0.7-0.5l0.7-0.6c0.1,0.4,0.3,0.8,0.4,1.3c0,0.1,0,0.1,0,0.2c0,0.1,0,0.1,0,0.2c0,0.1,0,0.1-0.1,0.3
		c-0.1,0.1-0.1,0.1-0.1,0.1l-0.1,0l-0.1,0.1l-0.1,0.1c0,0,0.1,0-0.2,0.1c-0.2,0-0.1,0-0.2,0c0,0-0.1,0-0.1-0.1
		c-0.1-0.1-0.2-0.1-0.3-0.2c-0.7-0.5-1.3-1-2-1.5l0.5-0.5c0.5,0.6,0.9,1.1,1.4,1.8l0.2,0.2l0.1,0.1l0,0.1c0,0,0,0,0,0.1
		c0,0,0,0.1,0,0.1c0,0.1-0.1,0.3-0.1,0.3c-0.1,0.1-0.3,0.2-0.4,0.4l-0.4,0.4l-0.2,0.2l0,0c0,0-0.1,0.1-0.2,0.1c-0.1,0-0.1,0-0.2,0
		c-0.1,0-0.1,0-0.2,0c-0.8-0.2-1.5-0.4-2.2-0.6l-2.1-0.8l0.2-0.4c0.7,0.5,1.5,0.9,2.2,1.4c0.4,0.3,0.7,0.5,1.1,0.8l0.3,0.2l0.1,0.1
		c0,0,0,0,0.1,0.1c0,0,0,0,0,0.1c0,0.1,0,0.1,0,0.1C416,108.3,415.9,108.5,415.8,108.8L415.8,108.8z"/>
</g>
<g>
	<path d="M457,106.5c0.3,0.1,1.2,0.3,1.6,0.4c0.2,0,1.5-0.4,1.5-0.4s-1,0.7-0.9,0.7c0.2,0.1,0.1,0,0.2,0.1c0.1,0.1,2.2-0.9,2.2-0.9
		s-1.7,1.2-1.6,1.3c0.1,0,0,0,0.1,0.1c0.1,0.1,3.3-0.8,3.3-0.8s-2.8,1.2-2.7,1.3l-1,0.9c-0.8-0.8-2-1.2-3.2-1.5
		c-1.2-0.3-2.5-0.4-3.8-0.5C452.3,107,455.6,106.2,457,106.5z"/>
</g>
</svg>
